<svg width="65" height="64" viewBox="0 0 65 64" fill="none" xmlns="http://www.w3.org/2000/svg">
<path d="M30.1812 10.6689H58.9799C60.1114 10.6687 61.1969 11.118 61.9971 11.9183C62.7973 12.7185 63.2467 13.8038 63.2464 14.9355V50.1339C63.2467 51.2655 62.7973 52.3509 61.9971 53.1512C61.1969 53.9514 60.1116 54.4007 58.9799 54.4005H5.64888C4.51731 54.4007 3.43186 53.9514 2.63164 53.1512C1.83143 52.3509 1.38207 51.2656 1.38232 50.1339V14.9355C1.38207 13.8039 1.83143 12.7185 2.63164 11.9183C3.43186 11.118 4.51718 10.6687 5.64888 10.6689H30.1812Z" fill="#7FACFA"/>
<path d="M28.6915 10.6689H56.0006C58.2955 10.7308 60.1063 12.6405 60.0464 14.9354V50.1338C60.1064 52.4288 58.2956 54.3384 56.0006 54.4002H5.42813C3.13323 54.3384 1.32244 52.4287 1.38231 50.1338V14.9354C1.32231 12.6404 3.1331 10.7308 5.42813 10.6689H28.6915Z" fill="#E3E7F2"/>
<path d="M40.8471 52.2676H23.7812V60.8006H40.8471V52.2676Z" fill="#7FACFA"/>
<path d="M37.6473 52.2676H23.7812V60.8006H37.6473V52.2676Z" fill="#E3E7F2"/>
<path d="M16.3151 58.667H48.3137C48.9028 58.667 49.3803 59.1446 49.3803 59.7336V61.8668C49.3803 62.4559 48.9028 62.9334 48.3137 62.9334H16.3151C15.726 62.9334 15.2485 62.4559 15.2485 61.8668V59.7336C15.2484 59.1445 15.726 58.667 16.3151 58.667Z" fill="#7FACFA"/>
<path d="M16.3151 58.667H45.1138C45.7029 58.667 46.1804 59.1446 46.1804 59.7336V61.8668C46.1804 62.4559 45.7029 62.9334 45.1138 62.9334H16.3151C15.726 62.9334 15.2485 62.4559 15.2485 61.8668V59.7336C15.2484 59.1445 15.726 58.667 16.3151 58.667Z" fill="#E3E7F2"/>
<path d="M25.9022 20.2659C26.3105 19.9647 26.6955 19.6332 27.0539 19.2742C31.2175 15.1105 31.2174 8.35997 27.0537 4.1964C22.89 0.0328399 16.1396 0.0328399 11.9759 4.1964C7.81218 8.35997 7.81206 15.1105 11.9756 19.2742C12.3341 19.6332 12.7191 19.9647 13.1273 20.2659H25.9022Z" fill="url(#paint0_linear)"/>
<path d="M27.0558 19.2766C26.6971 19.6357 26.3122 19.9673 25.9038 20.2686H23.3439C23.6947 19.9621 24.0226 19.6306 24.3252 19.2766C27.8665 14.8728 27.8665 8.59834 24.3252 4.19467C22.9114 2.4625 20.8734 1.35542 18.6509 1.11206C23.1074 0.746448 27.3185 3.20121 29.1962 7.2594C31.0738 11.3176 30.2192 16.1163 27.0558 19.2766Z" fill="#7FACFA"/>
<path d="M52.5653 39.4647C52.9735 39.1634 53.3585 38.8319 53.717 38.473C57.8805 34.3093 57.8804 27.5587 53.7167 23.3951C49.553 19.2316 42.8026 19.2316 38.6389 23.3951C34.4752 27.5587 34.4752 34.3093 38.6387 38.473C38.9971 38.8319 39.3821 39.1634 39.7904 39.4647H52.5653Z" fill="url(#paint1_linear)"/>
<path d="M53.7186 38.4757C53.36 38.8348 52.975 39.1664 52.5666 39.4677H50.0068C50.3575 39.1612 50.6855 38.8297 50.9881 38.4757C54.5293 34.0719 54.5293 27.7974 50.9881 23.3938C49.5743 21.6616 47.5362 20.5545 45.3137 20.3113C49.7703 19.9457 53.9813 22.4004 55.859 26.4586C57.7368 30.5167 56.8821 35.3155 53.7186 38.4757Z" fill="#7FACFA"/>
<path d="M10.9819 35.2012H24.8479C26.0261 35.2012 26.9812 36.1563 26.9812 37.3345C26.9812 38.5127 26.0261 39.4677 24.8479 39.4677H10.9819C9.80372 39.4677 8.84863 38.5127 8.84863 37.3345C8.84863 36.1563 9.80372 35.2012 10.9819 35.2012Z" fill="#A4C2F7"/>
<path d="M63.2463 45.8677V50.1341C63.2465 51.2657 62.7972 52.3511 61.997 53.1513C61.1968 53.9516 60.1114 54.4009 58.9797 54.4007H5.64888C4.51731 54.4009 3.43186 53.9516 2.63164 53.1513C1.83143 52.3511 1.38207 51.2658 1.38232 50.1341V45.8677H63.2463Z" fill="#7FACFA"/>
<path d="M60.0463 45.8677V50.1341C60.1063 52.4291 58.2954 54.3387 56.0005 54.4005H5.42812C3.13322 54.3387 1.32243 52.429 1.3823 50.1341V45.8677H60.0463Z" fill="#E3E7F2"/>
<path d="M8.62481 54.4007H5.42496C3.13169 54.3363 1.32327 52.4277 1.38252 50.1343V14.9359C1.32327 12.6423 3.13169 10.7338 5.42496 10.6694H8.52882C6.27467 10.7873 4.52463 12.6793 4.58237 14.9359V50.1343C4.52313 52.4278 6.33154 54.3363 8.62481 54.4007Z" fill="white"/>
<path d="M18.4484 59.7341V61.8673C18.4501 62.4557 18.9266 62.9322 19.515 62.9339H16.3151C15.7268 62.9322 15.2503 62.4557 15.2485 61.8673V59.7341C15.2503 59.1457 15.7268 58.6692 16.3151 58.6675H19.515C18.9267 58.6692 18.4501 59.1457 18.4484 59.7341Z" fill="white"/>
<path d="M26.9814 54.4004H23.7815V58.6668H26.9814V54.4004Z" fill="white"/>
<path d="M2.44907 14.9355V28.8015V45.8675H0.315918V28.8015V14.9355H2.44907Z" fill="white"/>
<path d="M1.38239 24.5353C1.66475 24.531 1.93511 24.4205 2.13973 24.2259C2.55221 23.8053 2.55221 23.1319 2.13973 22.7113L1.97986 22.5832C1.92036 22.5427 1.85574 22.5103 1.78762 22.4869C1.72712 22.4561 1.66225 22.4347 1.59538 22.4232C1.52501 22.4112 1.45376 22.4041 1.38239 22.4019C1.10003 22.4057 0.829538 22.5162 0.625047 22.7112C0.222315 23.1358 0.222315 23.8013 0.625047 24.2258C0.726917 24.3221 0.846287 24.3981 0.976656 24.4498C1.10503 24.5046 1.24289 24.5336 1.38239 24.5353Z" fill="#428DFF"/>
<path d="M58.9799 9.60252H31.0533C30.2637 5.31659 27.1626 1.82212 23.0009 0.528678C18.8392 -0.764764 14.3035 0.356436 11.2237 3.4398C9.5385 5.11435 8.40705 7.26525 7.98195 9.60252H5.64893C2.70506 9.60602 0.319293 11.9917 0.315918 14.9357V19.2021C0.315918 19.7912 0.793522 20.2687 1.3825 20.2687C1.97147 20.2687 2.44907 19.7911 2.44907 19.2021V14.9357C2.45095 13.1692 3.88251 11.7377 5.64893 11.7358H7.78221C7.77446 14.4626 8.72542 17.1054 10.4687 19.2021H8.85191C8.26281 19.2021 7.78533 19.6796 7.78533 20.2687C7.78533 20.8578 8.26294 21.3352 8.85191 21.3352H30.1843C30.7734 21.3352 31.2509 20.8576 31.2509 20.2687C31.2509 19.6797 30.7734 19.2021 30.1843 19.2021H28.5661C30.3098 17.1054 31.2609 14.4627 31.253 11.7358H58.9799C60.7463 11.7377 62.1779 13.1692 62.1798 14.9357V44.8009H2.44907V27.7351C2.44907 27.146 1.97147 26.6685 1.3825 26.6685C0.793522 26.6685 0.315918 27.146 0.315918 27.7351V50.1341C0.319418 53.0781 2.70506 55.4637 5.64905 55.4672H22.7149V57.6005H15.2486C14.9658 57.6004 14.6944 57.7127 14.4943 57.9128C14.2943 58.1128 14.1819 58.3842 14.1819 58.6672V62.9336C14.1818 63.2165 14.2942 63.4878 14.4943 63.688C14.6943 63.888 14.9656 64.0003 15.2486 64.0003H49.3805C49.6633 64.0005 49.9347 63.8881 50.1348 63.688C50.3348 63.488 50.4472 63.2166 50.4472 62.9336V58.6672C50.4473 58.3843 50.3349 58.113 50.1348 57.9128C49.9348 57.7129 49.6634 57.6005 49.3805 57.6005H41.9142V55.4672H58.98C61.924 55.4637 64.3097 53.0781 64.3132 50.1341V14.9357C64.3095 11.9917 61.9239 9.60602 58.9799 9.60252ZM26.3033 18.523C26.0539 18.7644 25.7908 18.9911 25.5153 19.2021H13.5199C13.2438 18.9905 12.9801 18.7632 12.73 18.5214C9.98198 15.7756 9.15927 11.6446 10.6455 8.05546C12.1316 4.46638 15.6339 2.12611 19.5186 2.12661C23.4033 2.12711 26.905 4.468 28.3903 8.05746C29.8755 11.6469 29.0518 15.7777 26.3033 18.523ZM48.3138 61.8669H16.3152V59.7336H48.3138V61.8669ZM39.7808 57.6004H24.8481V55.4671H39.7808V57.6004ZM58.9799 53.3339H5.64893C3.88251 53.3321 2.45095 51.9005 2.44907 50.1341V46.9342H62.1798V50.1341C62.1779 51.9005 60.7463 53.3321 58.9799 53.3339Z" fill="#428DFF"/>
<path d="M24.345 10.5285C23.7755 9.97442 23.0232 9.64756 22.2296 9.60944C22.2175 9.60906 22.2073 9.60244 22.1951 9.60244H21.751C20.9874 9.65356 20.2497 9.90018 19.6088 10.3187L17.5573 8.26712C18.0907 7.98189 18.7425 8.04076 19.2161 8.41712C19.6326 8.8336 20.3079 8.8336 20.7244 8.41712C21.1409 8.00064 21.1409 7.32529 20.7244 6.90881C19.3898 5.73849 17.4218 5.65112 15.9887 6.69844L15.7465 6.4562C15.33 6.03972 14.6547 6.03972 14.2382 6.4562C13.8217 6.87269 13.8217 7.54803 14.2382 7.96451L14.4797 8.206C14.0977 8.78335 13.854 9.44107 13.7675 10.128C13.6102 11.1597 13.9532 12.2046 14.6913 12.9424C15.4293 13.6803 16.4743 14.0229 17.5059 13.8654C18.1926 13.779 18.8501 13.5354 19.4275 13.1537L21.4781 15.2043C20.9448 15.4896 20.2929 15.4307 19.8195 15.0544C19.55 14.785 19.1574 14.6798 18.7892 14.7785C18.4213 14.8771 18.1338 15.1646 18.0352 15.5326C17.9365 15.9005 18.0418 16.2933 18.3111 16.5628C18.9452 17.1819 19.8011 17.5206 20.687 17.5033C21.5275 17.4897 22.3468 17.2374 23.0493 16.7756L23.289 17.0154C23.7055 17.4318 24.3809 17.4318 24.7974 17.0154C25.2138 16.5989 25.2138 15.9235 24.7974 15.5071L24.5555 15.2652C25.6032 13.8318 25.5158 11.8632 24.345 10.5285ZM21.7301 11.7357H22.1721C22.4207 11.7602 22.6543 11.8661 22.8368 12.0367C23.2132 12.5106 23.2719 13.1627 22.9864 13.6963L21.1776 11.8875C21.3545 11.8132 21.5401 11.7622 21.7301 11.7357ZM17.2703 11.7451C16.885 11.8058 16.4925 11.6918 16.1995 11.4342C15.941 11.1415 15.8268 10.7486 15.888 10.3629C15.9148 10.161 15.9695 9.96392 16.0505 9.77706L17.8559 11.5825C17.6693 11.6635 17.4722 11.7181 17.2703 11.7451Z" fill="#428DFF"/>
<path d="M54.4789 22.6412C50.0527 18.209 42.9253 18.0362 38.2894 22.2485C33.6535 26.4608 33.1449 33.5722 37.1341 38.4014H35.5173C34.9282 38.4014 34.4507 38.8789 34.4507 39.468C34.4507 40.0571 34.9282 40.5345 35.5173 40.5345H56.8497C57.4388 40.5345 57.9163 40.0571 57.9163 39.468C57.9163 38.8789 57.4387 38.4014 56.8497 38.4014H55.2315C59.0846 33.7407 58.7586 26.9135 54.4789 22.6412ZM40.1852 38.4014C39.9091 38.1898 39.6453 37.9625 39.3952 37.7207C36.6473 34.9748 35.8246 30.8439 37.3107 27.2546C38.7969 23.6654 42.2991 21.3253 46.1838 21.3258C50.0685 21.3263 53.5702 23.6672 55.0555 27.2566C56.5408 30.8461 55.7171 34.9769 52.9686 37.7222C52.7192 37.9635 52.4561 38.1903 52.1806 38.4013H40.1852V38.4014Z" fill="#428DFF"/>
<path d="M51.4625 27.164C51.8789 26.7475 51.8789 26.0722 51.4625 25.6557C51.046 25.2392 50.3706 25.2392 49.9542 25.6557L49.712 25.8978C48.279 24.8502 46.3108 24.9377 44.9763 26.1083C44.355 26.7564 44.0212 27.6275 44.0503 28.5247V28.8019L44.0525 28.8132C44.0555 28.8504 44.0492 28.8859 44.0534 28.9233C44.14 29.6099 44.3837 30.2672 44.7654 30.8446L42.716 32.894C42.6349 32.7071 42.5802 32.51 42.5535 32.3081C42.4922 31.9224 42.6065 31.5295 42.865 31.2368C43.2815 30.8203 43.2815 30.145 42.865 29.7285C42.4485 29.312 41.7732 29.312 41.3567 29.7285C40.6357 30.4767 40.2955 31.513 40.4327 32.543C40.5193 33.2298 40.7629 33.8876 41.1449 34.465L40.9034 34.7065C40.6341 34.9759 40.5288 35.3686 40.6275 35.7367C40.7261 36.1047 41.0136 36.3922 41.3815 36.4908C41.7495 36.5894 42.1423 36.4842 42.4117 36.2148L42.6511 35.9755C43.3536 36.4373 44.173 36.6898 45.0136 36.7033C45.8996 36.7202 46.7553 36.3815 47.3895 35.7627C48.1107 35.0145 48.4506 33.9778 48.3124 32.9477C48.2264 32.2608 47.9827 31.6029 47.6008 31.0256L49.6515 28.9748C49.937 29.5083 49.8782 30.1605 49.5019 30.6343C49.2319 30.9036 49.1263 31.2966 49.2249 31.6649C49.3236 32.0333 49.6114 32.3209 49.9798 32.4193C50.3483 32.5176 50.7411 32.4118 51.0102 32.1415C52.1811 30.8072 52.2684 28.8388 51.2204 27.4061L51.4625 27.164ZM46.1836 28.7363V28.2634C46.2097 28.0207 46.3156 27.7933 46.4846 27.6171C46.958 27.2407 47.6099 27.1816 48.1432 27.4666L46.3362 29.2736C46.2631 29.1017 46.2117 28.921 46.1836 28.7363ZM46.193 33.183C46.2542 33.5685 46.14 33.9612 45.8815 34.2538C45.4081 34.6308 44.7558 34.6899 44.2224 34.4042L46.0298 32.5967C46.111 32.7836 46.1658 32.981 46.193 33.183Z" fill="#428DFF"/>
<path d="M8.8488 27.7352H12.0487C12.6378 27.7352 13.1152 27.2576 13.1152 26.6686C13.1152 26.0795 12.6376 25.6021 12.0487 25.6021H8.8488C8.25971 25.6021 7.78223 26.0797 7.78223 26.6686C7.78223 27.2576 8.25971 27.7352 8.8488 27.7352Z" fill="#428DFF"/>
<path d="M8.8488 32.0018H18.4484C19.0375 32.0018 19.5149 31.5243 19.5149 30.9352C19.5149 30.3461 19.0373 29.8687 18.4484 29.8687H8.8488C8.25971 29.8687 7.78223 30.3463 7.78223 30.9352C7.78223 31.5242 8.25971 32.0018 8.8488 32.0018Z" fill="#428DFF"/>
<path d="M19.515 27.7352C20.1041 27.7352 20.5815 27.2576 20.5815 26.6686C20.5815 26.0795 20.1041 25.6021 19.515 25.6021H16.3151C15.726 25.6021 15.2485 26.0797 15.2485 26.6686C15.2485 27.2577 15.7261 27.7352 16.3151 27.7352H19.515Z" fill="#428DFF"/>
<path d="M26.9813 27.7352C27.5704 27.7352 28.0479 27.2576 28.0479 26.6686C28.0479 26.0795 27.5704 25.6021 26.9813 25.6021H23.7814C23.1923 25.6021 22.7148 26.0797 22.7148 26.6686C22.7148 27.2577 23.1923 27.7352 23.7814 27.7352H26.9813Z" fill="#428DFF"/>
<path d="M21.6482 30.9351C21.6481 31.218 21.7604 31.4893 21.9606 31.6895C22.1605 31.8894 22.4319 32.0018 22.7149 32.0018H26.9813C27.5704 32.0018 28.0479 31.5243 28.0479 30.9352C28.0479 30.3461 27.5704 29.8687 26.9813 29.8687H22.7149C22.432 29.8685 22.1607 29.9809 21.9606 30.181C21.7606 30.3809 21.6482 30.6522 21.6482 30.9351Z" fill="#428DFF"/>
<path d="M10.9821 40.5345H24.8481C26.6153 40.5345 28.0479 39.1018 28.0479 37.3346C28.0479 35.5675 26.6153 34.1348 24.8481 34.1348H10.9821C9.21491 34.1348 7.78223 35.5675 7.78223 37.3346C7.78223 39.1018 9.21479 40.5345 10.9821 40.5345ZM10.9821 36.268H24.8481C25.4372 36.268 25.9147 36.7456 25.9147 37.3346C25.9147 37.9237 25.4371 38.4012 24.8481 38.4012H10.9821C10.393 38.4012 9.91551 37.9236 9.91551 37.3346C9.91551 36.7455 10.393 36.268 10.9821 36.268Z" fill="#428DFF"/>
<defs>
<linearGradient id="paint0_linear" x1="11.9754" y1="4.19269" x2="25.3244" y2="20.6705" gradientUnits="userSpaceOnUse">
<stop stop-color="#D4E1F4"/>
<stop offset="0.1717" stop-color="#D4E1F4"/>
<stop offset="0.2" stop-color="#D4E1F4"/>
<stop offset="0.2001" stop-color="#DAE4F4"/>
<stop offset="0.2007" stop-color="#EBEBF4"/>
<stop offset="0.2014" stop-color="#F6F1F4"/>
<stop offset="0.2023" stop-color="#FDF4F4"/>
<stop offset="0.205" stop-color="#FFF5F4"/>
<stop offset="0.2522" stop-color="#FFF5F4"/>
<stop offset="0.26" stop-color="#D4E1F4"/>
<stop offset="0.3974" stop-color="#D4E1F4"/>
<stop offset="0.42" stop-color="#D4E1F4"/>
<stop offset="0.4201" stop-color="#DAE4F4"/>
<stop offset="0.4207" stop-color="#EBEBF4"/>
<stop offset="0.4214" stop-color="#F6F1F4"/>
<stop offset="0.4223" stop-color="#FDF4F4"/>
<stop offset="0.425" stop-color="#FFF5F4"/>
<stop offset="0.4894" stop-color="#FFF5F4"/>
<stop offset="0.5" stop-color="#F9F2F4"/>
<stop offset="0.5001" stop-color="#E8EBF4"/>
<stop offset="0.5003" stop-color="#DDE5F4"/>
<stop offset="0.5005" stop-color="#D6E2F4"/>
<stop offset="0.501" stop-color="#D4E1F4"/>
<stop offset="0.7062" stop-color="#D4E1F4"/>
<stop offset="0.74" stop-color="#D4E1F4"/>
<stop offset="0.741" stop-color="#FFF5F4"/>
<stop offset="0.8346" stop-color="#FFF5F4"/>
<stop offset="0.85" stop-color="#FFF5F4"/>
<stop offset="0.851" stop-color="#D4E1F4"/>
</linearGradient>
<linearGradient id="paint1_linear" x1="38.6384" y1="23.3917" x2="51.9873" y2="39.8696" gradientUnits="userSpaceOnUse">
<stop stop-color="#D4E1F4"/>
<stop offset="0.1717" stop-color="#D4E1F4"/>
<stop offset="0.2" stop-color="#D4E1F4"/>
<stop offset="0.2001" stop-color="#DAE4F4"/>
<stop offset="0.2007" stop-color="#EBEBF4"/>
<stop offset="0.2014" stop-color="#F6F1F4"/>
<stop offset="0.2023" stop-color="#FDF4F4"/>
<stop offset="0.205" stop-color="#FFF5F4"/>
<stop offset="0.2522" stop-color="#FFF5F4"/>
<stop offset="0.26" stop-color="#D4E1F4"/>
<stop offset="0.3974" stop-color="#D4E1F4"/>
<stop offset="0.42" stop-color="#D4E1F4"/>
<stop offset="0.4201" stop-color="#DAE4F4"/>
<stop offset="0.4207" stop-color="#EBEBF4"/>
<stop offset="0.4214" stop-color="#F6F1F4"/>
<stop offset="0.4223" stop-color="#FDF4F4"/>
<stop offset="0.425" stop-color="#FFF5F4"/>
<stop offset="0.4894" stop-color="#FFF5F4"/>
<stop offset="0.5" stop-color="#F9F2F4"/>
<stop offset="0.5001" stop-color="#E8EBF4"/>
<stop offset="0.5003" stop-color="#DDE5F4"/>
<stop offset="0.5005" stop-color="#D6E2F4"/>
<stop offset="0.501" stop-color="#D4E1F4"/>
<stop offset="0.7062" stop-color="#D4E1F4"/>
<stop offset="0.74" stop-color="#D4E1F4"/>
<stop offset="0.741" stop-color="#FFF5F4"/>
<stop offset="0.8346" stop-color="#FFF5F4"/>
<stop offset="0.85" stop-color="#FFF5F4"/>
<stop offset="0.851" stop-color="#D4E1F4"/>
</linearGradient>
</defs>
</svg>
