<svg width="65" height="64" viewBox="0 0 65 64" fill="none" xmlns="http://www.w3.org/2000/svg">
<path d="M44.8833 42.4638C43.6608 45.2743 43.2044 48.3584 43.5606 51.4024C43.7699 53.3857 44.159 55.3457 44.7233 57.2584C45.0323 58.2487 45.4138 59.2148 45.8646 60.1491C46.4988 61.0397 47.0759 61.9696 47.5926 62.9331H23.2726C23.2726 62.9331 21.822 57.0237 18.5366 55.5304C17.8646 55.7651 17.1606 55.9998 16.4353 56.2344C14.3753 56.9546 12.278 57.5634 10.1526 58.0584C9.50714 58.2098 8.82802 58.0986 8.26464 57.7491C7.69152 57.3647 7.26639 56.7967 7.05927 56.1384C6.80277 55.4547 6.70777 54.7209 6.78189 53.9944C7.00814 53.2562 7.08789 52.4807 7.01652 51.7118C6.77114 50.7412 5.83252 50.4958 5.10714 49.9838C4.52052 49.5572 5.57652 48.2024 5.57652 48.2024C5.57652 48.2024 4.44589 47.3598 4.02989 46.9971C3.62452 46.6557 4.21127 46.0584 4.73389 44.9277C4.95839 44.4411 5.02189 43.8956 4.91527 43.3703C4.72327 42.3463 3.15527 41.9517 2.38727 41.3863C2.03527 41.1089 1.44864 40.7037 1.37389 40.2237C1.27789 39.5303 2.07789 38.5703 2.47252 38.0903C4.14852 35.9297 5.58614 33.5944 6.76052 31.1249C6.91452 30.8612 7.00577 30.5656 7.02714 30.2609C7.01652 28.8849 5.01114 28.3196 4.82977 26.9863C4.80664 26.5952 4.87614 26.2042 5.03239 25.8449C5.59127 24.6666 6.06877 23.4512 6.46177 22.2076C6.69364 21.0652 7.00002 19.9392 7.37914 18.8369C8.18064 16.6213 9.42564 14.5924 11.0378 12.8743C13.3951 10.3889 16.8724 9.15156 20.1578 8.50094C23.0329 7.87181 25.9484 7.44406 28.8831 7.22094C29.0325 7.19956 29.1711 7.19956 29.3205 7.18894C35.4859 6.87956 40.3499 8.95956 45.1071 12.6929C47.7108 14.6314 49.6128 17.3647 50.5258 20.4796C51.2213 23.0478 51.5481 25.7019 51.4964 28.3622C51.4753 30.9889 50.7096 33.5558 49.2884 35.7648C47.8593 38.0264 45.9713 39.9892 44.8833 42.4638Z" fill="#7FACFA"/>
<path d="M41.6833 42.4641C40.4608 45.2746 40.0044 48.3587 40.3606 51.4027C40.5699 53.3859 40.959 55.3459 41.5233 57.2587C41.8323 58.2489 42.2138 59.2151 42.6646 60.1493C43.2988 61.0399 43.8759 61.9698 44.3926 62.9333H23.2726C23.2726 62.9333 21.822 57.0239 18.5366 55.5307C17.8646 55.7653 17.1606 56.0001 16.4353 56.2347C16.1028 55.9512 15.7331 55.7143 15.3366 55.5307C13.0966 56.3093 10.3766 57.2053 8.26464 57.7493C7.69152 57.3649 7.26639 56.7969 7.05927 56.1387C6.80277 55.4549 6.70777 54.7212 6.78189 53.9947C7.00814 53.2564 7.08789 52.4809 7.01652 51.7121C6.77114 50.7414 5.83252 50.4961 5.10714 49.9841C4.52052 49.5574 5.57652 48.2027 5.57652 48.2027C5.57652 48.2027 4.44589 47.3601 4.02989 46.9973C3.62452 46.6559 4.21127 46.0587 4.73389 44.9279C4.95839 44.4413 5.02189 43.8958 4.91527 43.3706C4.72327 42.3466 3.15527 41.9519 2.38727 41.3866C2.03527 41.1092 1.44864 40.7039 1.37389 40.2239C1.27789 39.5306 2.07789 38.5706 2.47252 38.0906C4.14852 35.9299 5.58614 33.5947 6.76052 31.1252C6.91452 30.8614 7.00577 30.5658 7.02714 30.2612C7.01652 28.8852 5.01114 28.3198 4.82977 26.9866C4.80664 26.5954 4.87614 26.2044 5.03239 25.8452C5.59127 24.6668 6.06877 23.4514 6.46177 22.2078C6.69364 21.0654 7.00002 19.9394 7.37914 18.8372C8.18064 16.6216 9.42564 14.5927 11.0378 12.8746C13.3951 10.3892 16.8724 9.15182 20.1578 8.50119C23.0329 7.87207 25.9484 7.44432 28.8831 7.22119C33.7791 7.56257 37.8858 9.53582 41.9071 12.6932C44.5108 14.6317 46.4128 17.3649 47.3258 20.4798C48.0213 23.0481 48.3481 25.7022 48.2964 28.3624C48.2753 30.9892 47.5096 33.5561 46.0884 35.7651C44.6593 38.0267 42.7713 39.9894 41.6833 42.4641Z" fill="#E3E7F2"/>
<path d="M63.2299 19.7544C63.3301 24.5605 59.5837 28.5719 54.7819 28.7998H51.4005C56.2781 28.6779 60.1376 24.6324 60.0299 19.7544C60.128 15.0228 56.4857 11.0514 51.7632 10.741C51.9044 10.1397 51.976 9.52403 51.9766 8.90641C52.0347 5.29453 49.594 2.11991 46.0886 1.24778C46.6134 1.12716 47.1501 1.06641 47.6886 1.06641C51.921 1.16441 55.273 4.67403 55.1766 8.90641C55.176 9.52416 55.1044 10.1397 54.9632 10.741C59.6856 11.0515 63.328 15.0228 63.2299 19.7544Z" fill="#7FACFA"/>
<path d="M60.0302 19.7541C60.1379 24.6321 56.2785 28.6776 51.4008 28.7994H26.3982V28.7674C26.2069 28.7893 26.0147 28.8001 25.8222 28.7994C24.1033 28.7592 22.4709 28.0373 21.2845 26.7929C20.0982 25.5486 19.455 23.8836 19.4968 22.1648C19.4687 19.5421 20.9854 17.1479 23.3688 16.0528C23.0885 15.3098 22.9475 14.5216 22.9528 13.7274C22.911 12.0086 23.5542 10.3437 24.7405 9.09931C25.9269 7.85493 27.5593 7.13306 29.2782 7.09281C29.5497 7.09256 29.8208 7.11393 30.0888 7.15681C30.6339 4.90381 32.3498 3.11868 34.5794 2.48481C35.1009 2.34306 35.639 2.27143 36.1794 2.27143C37.3113 2.26893 38.4208 2.58693 39.3794 3.18881C40.1187 3.63293 40.7549 4.22918 41.246 4.93818C42.2652 3.07793 44.0249 1.73681 46.0887 1.24756C49.594 2.11968 52.0348 5.29443 51.9767 8.90618C51.976 9.52393 51.9044 10.1394 51.7633 10.7408C56.4859 11.0512 60.1283 15.0224 60.0302 19.7541Z" fill="url(#paint0_linear)"/>
<path d="M25.822 28.8001C26.0145 28.8007 26.2068 28.7899 26.398 28.7681V28.8001H25.822Z" fill="#E3E7F2"/>
<path d="M31.23 36.2662L38.6966 24.533H31.23L45.0966 9.59961L40.83 21.333L48.2966 24.533L31.23 36.2662Z" fill="#A4C2F7"/>
<path d="M23.358 8.50126C20.0726 9.15189 16.5954 10.3893 14.238 12.8746C12.6258 14.5928 11.3809 16.6216 10.5794 18.8373C10.2004 19.9396 9.89389 21.0655 9.66201 22.2079C9.26914 23.4515 8.79151 24.6668 8.23264 25.8453C8.07626 26.2045 8.00689 26.5955 8.03001 26.9866C8.21139 28.32 10.2166 28.8853 10.2274 30.2613C10.206 30.5659 10.1148 30.8615 9.96076 31.1253C8.78639 33.5946 7.34876 35.93 5.67276 38.0906C5.27814 38.5706 4.47814 39.5306 4.57414 40.224C4.64876 40.704 5.23551 41.1094 5.58751 41.3866C6.35551 41.952 7.92351 42.3466 8.11551 43.3706C8.22214 43.8958 8.15864 44.4414 7.93414 44.928C7.41151 46.0586 6.82476 46.656 7.23014 46.9974C7.64614 47.36 8.77676 48.2028 8.77676 48.2028C8.77676 48.2028 7.72076 49.5574 8.30739 49.9841C9.03276 50.4961 9.97139 50.7415 10.2168 51.7121C10.2881 52.481 10.2084 53.2565 9.98214 53.9948C9.90801 54.7213 10.0029 55.455 10.2595 56.1388C10.4666 56.797 10.8918 57.3651 11.4649 57.7494C10.9956 57.8774 10.5475 57.9734 10.1529 58.0588C9.50739 58.2101 8.82826 58.0989 8.26489 57.7494C7.69176 57.365 7.26664 56.797 7.05951 56.1388C6.80301 55.455 6.70801 54.7213 6.78214 53.9948C7.00839 53.2565 7.08814 52.481 7.01676 51.7121C6.77139 50.7415 5.83276 50.4961 5.10739 49.9841C4.52076 49.5575 5.57676 48.2028 5.57676 48.2028C5.57676 48.2028 4.44614 47.3601 4.03014 46.9974C3.62476 46.656 4.21151 46.0588 4.73414 44.928C4.95864 44.4414 5.02214 43.8959 4.91551 43.3706C4.72351 42.3466 3.15551 41.952 2.38751 41.3866C2.03551 41.1093 1.44889 40.704 1.37414 40.224C1.27814 39.5306 2.07814 38.5706 2.47276 38.0906C4.14876 35.93 5.58639 33.5948 6.76076 31.1253C6.91476 30.8615 7.00601 30.5659 7.02739 30.2613C7.01676 28.8853 5.01139 28.3199 4.83001 26.9866C4.80689 26.5955 4.87639 26.2045 5.03264 25.8453C5.59151 24.6669 6.06901 23.4515 6.46201 22.2079C6.69389 21.0655 7.00026 19.9395 7.37939 18.8373C8.18089 16.6216 9.42589 14.5928 11.038 12.8746C13.3954 10.3893 16.8726 9.15189 20.158 8.50126C22.6163 7.97539 25.1019 7.58726 27.6034 7.33864C28.1468 7.17589 28.7109 7.09326 29.278 7.09326L23.358 8.50126Z" fill="white"/>
<path d="M11.7475 13.8972C10.2609 15.4855 9.1084 17.3561 8.35815 19.3981C7.99828 20.4488 7.70628 21.5216 7.4839 22.6098C7.1509 23.7787 6.71378 24.9152 6.17765 26.006L6.00828 26.4273L4.0144 25.6686L4.21078 25.1797C4.6969 24.197 5.09715 23.174 5.40703 22.1222C5.64903 20.9458 5.96728 19.7863 6.35978 18.6513C7.21028 16.3406 8.5164 14.2243 10.2005 12.4282L11.7475 13.8972Z" fill="white"/>
<path d="M6.62702 21.5868C6.90252 21.6464 7.19027 21.6019 7.43477 21.4621C7.66715 21.3148 7.8374 21.0874 7.91315 20.8231C7.97715 20.5601 7.94127 20.2826 7.81252 20.0444L7.6959 19.8797C7.65077 19.8244 7.5989 19.7751 7.5414 19.7328C7.49277 19.6857 7.43765 19.6457 7.37777 19.6143C7.31452 19.5811 7.24915 19.5522 7.1819 19.5277C6.91065 19.4411 6.6159 19.4674 6.3644 19.6008C6.23952 19.6754 6.13077 19.7742 6.04452 19.8913C5.77652 20.2446 5.7439 20.7233 5.96165 21.1096C6.03765 21.2279 6.13615 21.3302 6.25152 21.4107C6.3639 21.4937 6.4914 21.5534 6.62702 21.5868Z" fill="#428DFF"/>
<path d="M56.19 9.80363C56.2187 9.5065 56.2404 9.20738 56.2404 8.90425C56.3314 4.088 52.5089 0.105875 47.693 0C45.1353 0.020125 42.7254 1.20213 41.1437 3.21225C39.8077 1.93412 38.0329 1.21625 36.1842 1.20575C33.1252 1.24413 30.4064 3.16412 29.3473 6.03412C29.324 6.03387 29.3025 6.02913 29.279 6.02913C28.3225 6.02988 27.3759 6.22375 26.4963 6.5995C25.8914 6.63338 25.2923 6.67913 24.7093 6.74788C18.8999 7.40988 14.4703 8.90887 11.5452 11.2015C11.0663 11.5759 10.6165 11.9861 10.1999 12.4286L10.1992 12.4299C9.15992 13.5314 8.26529 14.7607 7.53692 16.0884C7.39154 16.3396 7.35704 16.64 7.44179 16.9176C7.52654 17.1952 7.72292 17.4251 7.98392 17.5522C8.49842 17.7984 9.11567 17.61 9.40504 17.1185C10.0459 15.9496 10.8332 14.8671 11.7477 13.8971L11.7473 13.8968L11.7479 13.8962C12.0924 13.531 12.4638 13.192 12.8588 12.8822C15.2129 11.0374 18.7594 9.764 23.3985 9.0775C22.4112 10.4266 21.88 12.0557 21.8827 13.7276C21.8834 14.3345 21.9552 14.9391 22.0964 15.5294C19.8013 16.9526 18.4123 19.4677 18.43 22.1682C18.3532 26.334 21.6609 29.7769 25.8264 29.8668C25.9748 29.8668 26.1175 29.8505 26.2627 29.8394C26.3072 29.8516 26.3525 29.8608 26.3983 29.8668H34.0383L30.33 35.6939C30.0578 36.1216 30.1243 36.682 30.4892 37.0341C30.854 37.3864 31.4163 37.433 31.8343 37.1459L42.4222 29.8668H50.0339C49.8367 31.8173 49.1815 33.6935 48.1218 35.3428C47.6254 36.1245 47.0535 36.8964 46.5004 37.6427C45.3904 39.0315 44.4413 40.5414 43.6713 42.1437C42.3652 45.1109 41.8803 48.3745 42.2672 51.5933C42.4822 53.6285 42.8844 55.6396 43.4688 57.6011C43.7797 58.6384 44.177 59.6476 44.6568 60.6183C44.8814 61.0575 45.1458 61.4754 45.4464 61.8666H23.9597C23.3255 59.6666 22.213 57.634 20.7018 55.914L21.3617 55.6818C22.0169 55.45 22.5122 55.275 22.7705 55.1937C26.9242 53.8896 29.0018 51.9926 28.9465 49.5547C28.9337 48.9754 28.4604 48.5123 27.8809 48.512L27.8564 48.5125C27.5735 48.5186 27.3048 48.637 27.1093 48.8415C26.9138 49.046 26.8077 49.3198 26.8142 49.6026C26.835 50.5474 26.0402 51.9313 22.1319 53.1584C21.86 53.2438 21.3397 53.4271 20.6512 53.6699C19.9465 53.9189 19.061 54.2319 18.086 54.5636L18.0834 54.565L18.0819 54.5653C15.3972 55.5444 12.6587 56.3695 9.87979 57.0366C9.04204 57.1963 8.22792 56.6654 8.03604 55.8345C7.83504 55.3135 7.75617 54.7533 7.80579 54.197C7.83292 54.0054 7.87667 53.8148 7.91929 53.6235C8.12267 52.9386 8.15304 52.2141 8.00779 51.5146C7.73054 50.611 7.07254 49.8735 6.20617 49.4954C6.16504 49.4719 6.12392 49.448 6.08217 49.4245C6.17229 49.2588 6.27529 49.1005 6.39054 48.951C6.57067 48.7241 6.65067 48.4338 6.61242 48.1466C6.57417 47.8595 6.42067 47.6002 6.18742 47.4286C5.97079 47.2697 5.47442 46.899 5.09054 46.5947C5.12904 46.526 5.16917 46.4557 5.20454 46.3931C5.35192 46.1348 5.52017 45.8385 5.68579 45.4936C6.00279 44.8026 6.09554 44.0296 5.95092 43.2832C5.71029 42.0541 4.56342 41.4702 3.72592 41.0436C3.45829 40.9171 3.20154 40.7689 2.95817 40.6004C2.77279 40.4726 2.59929 40.3283 2.43992 40.1691C2.64529 39.7006 2.93217 39.2723 3.28729 38.904C5.01592 36.681 6.49654 34.2757 7.70254 31.731C7.92229 31.3329 8.04517 30.8886 8.06142 30.4341C7.96392 29.4379 7.43854 28.5331 6.62179 27.9544C6.26654 27.631 5.89942 27.2966 5.86504 27.0435C5.87692 26.8291 5.92617 26.6184 6.01029 26.4209L6.17717 26.0058L6.59754 25.0518C6.71829 24.7911 6.72729 24.4925 6.62254 24.225C6.51779 23.9575 6.30817 23.7446 6.04242 23.6355C5.50704 23.4196 4.89617 23.659 4.64992 24.1811L4.21029 25.1794L4.01392 25.6682L4.01829 25.67C4.01504 25.6784 4.00792 25.6839 4.00492 25.6924C3.78767 26.2108 3.70054 26.7744 3.75129 27.3341C3.94667 28.2163 4.45604 28.9972 5.18467 29.5315C5.54929 29.8633 5.92579 30.207 5.92792 30.4419C5.89154 30.5705 5.84092 30.6947 5.77692 30.8123C4.63604 33.2171 3.23654 35.4906 1.60342 37.5925C0.797293 38.3438 0.332418 39.3913 0.315918 40.493C0.520418 41.2836 1.03767 41.9571 1.74867 42.3586C2.06817 42.5817 2.40579 42.7778 2.75804 42.9446C3.10129 43.1196 3.81592 43.4837 3.85654 43.6889C3.91467 43.9862 3.88142 44.2941 3.76117 44.5723C3.62104 44.8639 3.47629 45.1165 3.35079 45.3374C2.97892 45.9905 2.35604 47.0832 3.30704 47.8874C3.50129 48.0614 3.82367 48.316 4.13054 48.5515C3.90629 48.9674 3.80829 49.4396 3.84867 49.9104C3.90242 50.3135 4.12054 50.6764 4.45129 50.913C4.67467 51.0694 4.90604 51.2137 5.14454 51.3457C5.67054 51.6472 5.87529 51.7854 5.94192 52.0489C5.98867 52.4217 5.95292 52.8003 5.83729 53.1577C5.78204 53.4041 5.72792 53.651 5.69204 53.9061C5.59517 54.7944 5.70717 55.6929 6.01917 56.5301C6.47329 58.094 7.89304 59.1799 9.52129 59.2088C9.78742 59.2083 10.0527 59.1801 10.3129 59.1249C13.0298 58.4799 15.7079 57.6811 18.3343 56.7326C20.4337 58.0001 21.7688 61.7682 22.1192 63.1879C22.2368 63.6645 22.6642 63.9995 23.1552 63.9999H47.3254C47.6622 63.9999 47.9792 63.8409 48.1805 63.5709C48.3819 63.3009 48.4439 62.9518 48.3479 62.629C48.0934 61.9404 47.7253 61.2991 47.2588 60.7321C47.0014 60.402 46.7722 60.051 46.5734 59.6826C46.1427 58.8112 45.786 57.905 45.5073 56.9738C44.9605 55.1329 44.5847 53.2456 44.3844 51.3358C44.0435 48.496 44.472 45.6167 45.625 42.9992C46.3324 41.5444 47.2009 40.1735 48.2142 38.9123C48.7897 38.1357 49.3845 37.3325 49.9214 36.4873C51.212 34.5 51.996 32.2267 52.2047 29.8664H55.1767C55.2462 29.8598 55.3148 29.8459 55.3814 29.825C60.5127 29.285 64.3817 24.9154 64.2964 19.7565C64.3858 14.9051 60.9593 10.6981 56.19 9.80363ZM39.5967 25.1063C39.8057 24.7778 39.8192 24.3615 39.6318 24.0201C39.4444 23.6789 39.086 23.4666 38.6967 23.4666H33.6759L42.2942 14.1854L39.8274 20.9688C39.6343 21.5005 39.8898 22.0905 40.4097 22.3135L46.0972 24.751L34.9419 32.4202L39.5967 25.1063ZM54.5982 27.7334H45.525L48.9008 25.4125C49.2212 25.1924 49.3964 24.8154 49.3582 24.4285C49.3199 24.0416 49.0743 23.7063 48.717 23.5531L42.1769 20.75L46.0993 9.96463C46.2724 9.48763 46.0858 8.95475 45.6528 8.69013C45.2198 8.4255 44.6604 8.50237 44.3149 8.874L30.4482 23.8072C30.1595 24.1182 30.0825 24.5706 30.2522 24.9595C30.4218 25.3484 30.8057 25.5999 31.2299 25.5999H36.7533L35.3957 27.7332H26.6582C26.5295 27.6995 26.3958 27.6903 26.2638 27.7061C26.1187 27.7245 25.9725 27.7335 25.8263 27.7332C22.8387 27.6442 20.4855 25.1561 20.5633 22.1681C20.533 19.9671 21.7998 17.9541 23.7972 17.0291C23.8497 16.9985 23.8994 16.9632 23.9457 16.9237C24.0077 16.8885 24.0659 16.8471 24.1195 16.8004C24.1637 16.7491 24.2027 16.6936 24.236 16.6348C24.3269 16.5326 24.3809 16.403 24.3897 16.2665C24.4084 16.2003 24.4204 16.1322 24.4255 16.0635C24.4208 15.9939 24.4092 15.9249 24.3909 15.8575C24.3863 15.7955 24.376 15.7341 24.3602 15.674C24.1273 15.0518 24.0105 14.392 24.0159 13.7276C23.9382 10.7396 26.2914 8.2515 29.279 8.1625C29.5005 8.16425 29.7218 8.181 29.941 8.2125C29.9562 8.21462 29.9698 8.20837 29.985 8.20988C30.0185 8.213 30.0524 8.2225 30.0854 8.2225C30.189 8.20512 30.2928 8.18787 30.3964 8.17062C30.5008 8.13787 30.5995 8.08912 30.689 8.02625C30.7028 8.01662 30.7197 8.01288 30.733 8.00275C30.8715 7.906 30.9767 7.76862 31.034 7.60975C31.0684 7.55 31.0967 7.48687 31.1183 7.42137C31.6775 5.064 33.762 3.38437 36.1844 3.33912C37.8582 3.35262 39.4213 4.17775 40.3767 5.55212C40.3818 5.55937 40.3899 5.5625 40.395 5.5695C40.441 5.6225 40.4922 5.67075 40.5475 5.71375C40.5973 5.76575 40.652 5.8125 40.711 5.8535C40.7183 5.85775 40.7223 5.86525 40.7297 5.86938C40.7782 5.88925 40.828 5.90538 40.879 5.91738C40.9498 5.949 41.0237 5.97275 41.0997 5.98825C41.2353 5.98987 41.3709 5.98287 41.5057 5.96725C41.5833 5.94325 41.6579 5.91025 41.728 5.86912C41.7745 5.85262 41.8197 5.83263 41.8632 5.8095C41.87 5.80463 41.873 5.79688 41.8798 5.79187C41.9343 5.74487 41.9838 5.6925 42.0277 5.6355C42.0784 5.58663 42.1243 5.53275 42.1645 5.47487C42.1688 5.46763 42.1763 5.46375 42.1804 5.45638C43.2803 3.43163 45.3894 2.16037 47.6933 2.13337C51.3312 2.2385 54.199 5.26587 54.1074 8.90425C54.1088 9.439 54.0487 9.97225 53.9282 10.4934C53.9253 10.5282 53.9242 10.5631 53.9249 10.598C53.9154 10.629 53.9074 10.6605 53.901 10.6923C53.9048 10.7294 53.9107 10.7662 53.9185 10.8026C53.941 11.2257 54.2192 11.5926 54.6205 11.7286C54.6538 11.7463 54.688 11.7619 54.723 11.7755C54.778 11.7864 54.8337 11.7928 54.8897 11.7946C54.9012 11.7955 54.9104 11.8021 54.9219 11.8026C59.0803 12.0787 62.2778 15.5907 62.1637 19.7569C62.269 24.0455 58.8865 27.612 54.5982 27.7334Z" fill="#428DFF"/>
<defs>
<linearGradient id="paint0_linear" x1="27.1433" y1="6.6907" x2="41.0054" y2="36.6994" gradientUnits="userSpaceOnUse">
<stop stop-color="#D4E1F4"/>
<stop offset="0.1717" stop-color="#D4E1F4"/>
<stop offset="0.2" stop-color="#D4E1F4"/>
<stop offset="0.2001" stop-color="#DAE4F4"/>
<stop offset="0.2007" stop-color="#EBEBF4"/>
<stop offset="0.2014" stop-color="#F6F1F4"/>
<stop offset="0.2023" stop-color="#FDF4F4"/>
<stop offset="0.205" stop-color="#FFF5F4"/>
<stop offset="0.2522" stop-color="#FFF5F4"/>
<stop offset="0.26" stop-color="#D4E1F4"/>
<stop offset="0.3974" stop-color="#D4E1F4"/>
<stop offset="0.42" stop-color="#D4E1F4"/>
<stop offset="0.4201" stop-color="#DAE4F4"/>
<stop offset="0.4207" stop-color="#EBEBF4"/>
<stop offset="0.4214" stop-color="#F6F1F4"/>
<stop offset="0.4223" stop-color="#FDF4F4"/>
<stop offset="0.425" stop-color="#FFF5F4"/>
<stop offset="0.4894" stop-color="#FFF5F4"/>
<stop offset="0.5" stop-color="#F9F2F4"/>
<stop offset="0.5001" stop-color="#E8EBF4"/>
<stop offset="0.5003" stop-color="#DDE5F4"/>
<stop offset="0.5005" stop-color="#D6E2F4"/>
<stop offset="0.501" stop-color="#D4E1F4"/>
<stop offset="0.7062" stop-color="#D4E1F4"/>
<stop offset="0.74" stop-color="#D4E1F4"/>
<stop offset="0.741" stop-color="#FFF5F4"/>
<stop offset="0.8346" stop-color="#FFF5F4"/>
<stop offset="0.85" stop-color="#FFF5F4"/>
<stop offset="0.851" stop-color="#D4E1F4"/>
</linearGradient>
</defs>
</svg>
