<svg width="65" height="64" viewBox="0 0 65 64" fill="none" xmlns="http://www.w3.org/2000/svg">
<g clip-path="url(#clip0)">
<path d="M31.2492 32H33.3826C33.9717 32 34.4492 32.4776 34.4492 33.0666V61.8666C34.4492 62.4557 33.9717 62.9332 33.3826 62.9332H31.2492C30.6601 62.9332 30.1826 62.4556 30.1826 61.8666V33.0666C30.1825 32.4776 30.6601 32 31.2492 32Z" fill="#E3E7F2"/>
<path d="M15.2492 49.0664H4.58249C3.99337 49.0664 3.51587 49.5439 3.51587 50.133V52.2664C3.51587 52.8555 3.99349 53.333 4.58249 53.333H60.0491C60.6382 53.333 61.1157 52.8555 61.1157 52.2664V50.133C61.1157 49.5439 60.6382 49.0664 60.0491 49.0664H15.2492Z" fill="#7FACFA"/>
<path d="M14.5975 49.0664H4.52341C3.95091 49.0833 3.50016 49.5605 3.51603 50.133V52.2664C3.50016 52.8389 3.95091 53.3163 4.52341 53.333H56.9087C57.4812 53.3162 57.9319 52.8389 57.916 52.2664V50.133C57.9319 49.5605 57.4812 49.0832 56.9087 49.0664H14.5975Z" fill="#E3E7F2"/>
<path d="M23.7827 43.733H62.1827C62.7711 43.7312 63.2477 43.2547 63.2493 42.6663V4.26633C63.2476 3.67796 62.7711 3.20133 62.1827 3.19971H2.44944C1.86106 3.20146 1.38444 3.67796 1.38281 4.26633V42.6663C1.38456 43.2547 1.86106 43.7313 2.44944 43.733H15.2494" fill="#7FACFA"/>
<path d="M22.624 43.7339H59.0377C59.6107 43.7167 60.0624 43.2403 60.0492 42.6673V4.26731C60.0624 3.69418 59.6107 3.21793 59.0377 3.20068H2.3941C1.8211 3.21793 1.36948 3.69431 1.3826 4.26731V42.6673C1.36948 43.2404 1.8211 43.7167 2.3941 43.7339H14.532" fill="url(#paint0_linear)"/>
<path d="M23.7825 25.5996V43.733V49.0662V53.333V56.533L20.5825 53.333L19.5159 52.2662L18.4493 53.333L15.2493 56.533V53.333V49.0662V43.733V25.5996H23.7825Z" fill="#D4E1F4"/>
<path d="M31.2093 28.0875C30.8779 28.3933 30.7532 28.863 30.8893 29.2929L31.6253 31.6075C31.7247 31.9177 31.6888 32.2553 31.5263 32.5374C31.3639 32.8197 31.0901 33.0203 30.7719 33.0902L28.4039 33.6022C27.9628 33.7019 27.6183 34.0464 27.5186 34.4875L27.0066 36.8555C26.9367 37.1735 26.7361 37.4474 26.4538 37.6099C26.1716 37.7723 25.8339 37.8083 25.5239 37.7089L23.7853 37.1543L23.2093 36.9729C22.7794 36.8368 22.3097 36.9615 22.0039 37.2929L20.3719 39.0955C20.1529 39.3352 19.8432 39.4715 19.5186 39.4715C19.1939 39.4715 18.8843 39.335 18.6652 39.0955L17.0332 37.2929C16.7274 36.9615 16.2577 36.8368 15.8278 36.9729L15.2518 37.1543L13.5132 37.7089C13.203 37.8083 12.8654 37.7723 12.5833 37.6099C12.301 37.4475 12.1004 37.1737 12.0305 36.8555L11.5185 34.4875C11.4188 34.0464 11.0743 33.7019 10.6332 33.6022L8.26517 33.0902C7.94717 33.0203 7.6733 32.8197 7.5108 32.5374C7.34842 32.2552 7.31242 31.9175 7.4118 31.6075L8.1478 29.2929C8.28392 28.863 8.15917 28.3933 7.8278 28.0875L6.02517 26.4555C5.78567 26.2364 5.64917 25.9268 5.64917 25.6022C5.64917 25.2775 5.78567 24.9679 6.02517 24.7488L7.8278 23.1168C8.15917 22.811 8.28392 22.3413 8.1478 21.9114L7.4118 19.5968C7.31242 19.2867 7.34842 18.949 7.5108 18.6669C7.67317 18.3848 7.94705 18.184 8.26517 18.1142L10.6332 17.6022C11.0743 17.5024 11.4187 17.1579 11.5185 16.7168L12.0305 14.3488C12.1004 14.0308 12.301 13.7569 12.5833 13.5945C12.8655 13.4322 13.2032 13.3962 13.5132 13.4955L15.8278 14.2315C16.2577 14.3677 16.7274 14.2429 17.0332 13.9115L18.6652 12.1089C18.8842 11.8694 19.1939 11.7329 19.5186 11.7329C19.8432 11.7329 20.1528 11.8694 20.3719 12.1089L22.0039 13.9115C22.3097 14.2429 22.7794 14.3677 23.2093 14.2315L25.5239 13.4955C25.8341 13.3962 26.1717 13.4322 26.4538 13.5945C26.7361 13.7569 26.9367 14.0308 27.0066 14.3488L27.5186 16.7168C27.6183 17.1579 27.9628 17.5023 28.4039 17.6022L30.7719 18.1142C31.0899 18.184 31.3638 18.3847 31.5263 18.6669C31.6887 18.9492 31.7247 19.2868 31.6253 19.5968L30.8893 21.9114C30.7532 22.3413 30.8779 22.811 31.2093 23.1168L33.0119 24.7488C33.2514 24.9679 33.3879 25.2775 33.3879 25.6022C33.3879 25.9268 33.2514 26.2364 33.0119 26.4555L31.2093 28.0875Z" fill="#A4C2F7"/>
<path d="M4.58303 42.6663V4.26633C4.57141 3.69308 5.02328 3.21733 5.59641 3.19971H2.39641C1.82341 3.21746 1.37141 3.69321 1.38303 4.26633V42.6663C1.37141 43.2396 1.82328 43.7153 2.39641 43.733H5.59641C5.02341 43.7153 4.57141 43.2396 4.58303 42.6663ZM6.71641 52.2663V50.133C6.69978 49.562 7.14816 49.0851 7.71903 49.0663H4.51903C3.94803 49.0851 3.49978 49.562 3.51641 50.133V52.2663C3.49978 52.8373 3.94816 53.3142 4.51903 53.333H7.71903C7.14816 53.3143 6.69978 52.8375 6.71641 52.2663Z" fill="white"/>
<path d="M2.44929 4.2666V18.1334V42.6666H0.315918V18.1334V4.2666H2.44929Z" fill="white"/>
<path d="M1.38244 13.8664C1.66481 13.8622 1.93519 13.7517 2.13981 13.557C2.55231 13.1364 2.55231 12.463 2.13981 12.0424L1.97994 11.9143C1.92044 11.8738 1.85581 11.8414 1.78769 11.8179C1.72719 11.7872 1.66231 11.7658 1.59544 11.7543C1.52506 11.7423 1.45381 11.7352 1.38244 11.7329C1.10006 11.7368 0.829561 11.8473 0.625061 12.0423C0.222311 12.4669 0.222311 13.1324 0.625061 13.5569C0.726936 13.6533 0.846311 13.7293 0.976686 13.7809C1.10506 13.8358 1.24294 13.8648 1.38244 13.8664Z" fill="#428DFF"/>
<path d="M62.1825 2.13337H54.7159V1.06662C54.7159 0.4775 54.2384 0 53.6493 0C53.0602 0 52.5827 0.477625 52.5827 1.06662V2.13325H33.3827V1.06662C33.3825 0.477625 32.905 0 32.3159 0C31.7268 0 31.2493 0.477625 31.2493 1.06662V2.13325H12.0493V1.06662C12.0493 0.477625 11.5717 0 10.9825 0C10.3934 0 9.91592 0.477625 9.91592 1.06662V2.13325H2.44929C1.27154 2.1345 0.317043 3.089 0.315918 4.26662V8.53325C0.315918 9.1225 0.793543 9.6 1.38254 9.6C1.97154 9.6 2.44917 9.1225 2.44917 8.53337V4.26662H9.91592V6.4H6.71592C6.12679 6.4 5.64929 6.87763 5.64929 7.46663C5.64929 8.05562 6.12692 8.53325 6.71592 8.53325H15.2493C15.8384 8.53325 16.3159 8.05562 16.3159 7.46663C16.3159 6.87763 15.8383 6.4 15.2493 6.4H12.0493V4.26662H31.2493V6.4H28.0493C27.4602 6.4 26.9827 6.87763 26.9827 7.46663C26.9827 8.05562 27.4603 8.53325 28.0493 8.53325H36.5827C37.1718 8.53325 37.6493 8.05562 37.6493 7.46663C37.6493 6.87763 37.1717 6.4 36.5827 6.4H33.3827V4.26662H52.5827V6.4H49.3827C48.7935 6.4 48.316 6.87763 48.316 7.46663C48.316 8.05562 48.7935 8.53325 49.3827 8.53325H57.9159C58.505 8.53325 58.9825 8.05562 58.9825 7.46663C58.9825 6.87763 58.505 6.4 57.9159 6.4H54.7159V4.26662H62.1825V42.6666H24.8493V38.6123L25.1894 38.7204C25.7805 38.9139 26.4258 38.849 26.9665 38.5418C27.5165 38.228 27.9088 37.6968 28.0468 37.0788L28.627 34.6427L31.0042 34.1286C31.6187 33.9894 32.1462 33.5981 32.4578 33.0505C32.7634 32.5124 32.8293 31.8708 32.6395 31.2817L31.9015 28.9609C31.8942 28.9264 31.9059 28.8905 31.9323 28.8671L33.7292 27.2406C34.1904 26.8189 34.4528 26.2226 34.452 25.5976C34.4513 24.9728 34.1877 24.3769 33.7255 23.9562L31.9034 22.2329L32.6362 19.9266C32.8289 19.3355 32.764 18.6905 32.4575 18.1495C32.1438 17.5995 31.6125 17.2073 30.9945 17.0693L28.5587 16.489L28.0447 14.1119C27.9054 13.4974 27.5142 12.9699 26.9665 12.6582C26.4284 12.3527 25.7868 12.2869 25.1978 12.4765L22.792 13.1931L21.1567 11.3869C20.7243 10.945 20.1319 10.6962 19.5137 10.6969C18.8954 10.6975 18.3037 10.9476 17.8723 11.3905L16.1488 13.2125L13.8425 12.4797C13.2514 12.2867 12.6063 12.3516 12.0654 12.6584C11.5154 12.9721 11.1232 13.5034 10.9852 14.1214L10.4049 16.5572L8.02779 17.0713C7.41329 17.2105 6.88579 17.6018 6.57417 18.1494C6.26854 18.6875 6.20267 19.3291 6.39242 19.9181L7.10904 22.3239L5.30279 23.9592C4.84154 24.381 4.57917 24.9772 4.57992 25.6022C4.58067 26.2271 4.84429 26.823 5.30642 27.2436L7.12842 28.9671L6.39567 31.2734C6.20292 31.8645 6.26779 32.5095 6.57429 33.0505C6.88804 33.6005 7.41929 33.9927 8.03729 34.1307L10.4732 34.711L10.9872 37.0881C11.1264 37.7026 11.5177 38.2301 12.0653 38.5418C12.6035 38.8476 13.2455 38.9134 13.8345 38.723L14.1824 38.6121V42.6665L2.44904 42.6636V17.0666C2.44904 16.4775 1.97142 16 1.38242 16C0.793418 16 0.315918 16.4776 0.315918 17.0666V42.6666C0.317043 43.8444 1.27154 44.7987 2.44929 44.8H14.1827V48H3.51592C2.92679 48 2.44929 48.4775 2.44929 49.0666V53.3332C2.44929 53.9224 2.92692 54.3999 3.51592 54.3999H14.1825V56.5332C14.1825 56.9646 14.4424 57.3536 14.841 57.5186C15.2397 57.6838 15.6984 57.5924 16.0034 57.2874L18.8909 54.3999H20.1409L23.0284 57.2874C23.3334 57.5925 23.7922 57.6838 24.1908 57.5187C24.5894 57.3536 24.8493 56.9647 24.8493 56.5332V54.4H29.1159V62.9334C29.1159 63.5225 29.5935 64 30.1825 64H34.4492C35.0383 64 35.5158 63.5225 35.5158 62.9334V54.4H61.1158C61.3987 54.4001 61.67 54.2878 61.8702 54.0876C62.0702 53.8876 62.1825 53.6162 62.1825 53.3332V49.0666C62.1827 48.7837 62.0703 48.5124 61.8702 48.3122C61.6702 48.1122 61.3988 47.9999 61.1158 47.9999H35.5159V44.7999H62.1825C63.3602 44.7985 64.3145 43.8442 64.3159 42.6665V4.2665C64.3145 3.089 63.3603 2.13462 62.1825 2.13337ZM29.1159 44.8V48H24.8493V44.8H29.1159ZM13.1863 36.6906L13.0707 36.6276L12.5582 34.2574C12.3699 33.4077 11.7059 32.7446 10.856 32.5574L8.48829 32.0454L8.26279 33.0881L8.42579 31.9287L9.15967 29.6204C9.42167 28.7909 9.18079 27.8847 8.54142 27.2949L6.73879 25.6625L6.02267 26.4531L6.73879 25.5375L8.55392 23.8937C9.18442 23.3059 9.42079 22.4081 9.16179 21.5859L8.42579 19.2712L8.48829 19.1546L10.8587 18.6421C11.7083 18.4539 12.3714 17.7899 12.5587 16.94L13.0707 14.5723L12.028 14.3468L13.1874 14.5098L15.4958 15.2436C16.3253 15.5055 17.2314 15.2646 17.8213 14.6254L19.4535 12.8228L18.6629 12.1066L19.5785 12.8228L21.2223 14.6379C21.8099 15.2686 22.708 15.5051 23.53 15.2456L25.8447 14.5098L25.9613 14.5723L26.4738 16.9426C26.662 17.7922 27.326 18.4554 28.1759 18.6426L30.5437 19.1546L30.7692 18.1119L30.6062 19.2712L29.8723 21.5796C29.6103 22.4091 29.8512 23.3153 30.4905 23.9051L32.2932 25.5374L33.0093 24.7467L32.2932 25.6624L30.4905 27.2946L30.478 27.3061C29.8477 27.894 29.6112 28.7919 29.8703 29.6139L30.6062 31.9285L30.5437 32.0451L28.1733 32.5576C27.3237 32.7459 26.6605 33.4099 26.4733 34.2598L25.9613 36.6275L27.004 36.853L25.8457 36.6905L23.5373 35.9566C22.7077 35.6936 21.8007 35.9344 21.2108 36.5744L19.5784 38.3771L20.369 39.0933L19.4534 38.3771L17.8097 36.562C17.3849 36.1082 16.7917 35.85 16.17 35.8485C15.9442 35.8484 15.7198 35.8838 15.5049 35.9531L13.1863 36.6906ZM4.58254 52.2666V50.1333H14.1825V52.2666H4.58254ZM22.7159 53.9584L21.337 52.5795L21.3364 52.5789L20.27 51.5125C20.07 51.3124 19.7988 51.2 19.5159 51.2C19.233 51.2 18.9618 51.3124 18.7618 51.5125L17.6954 52.5789L17.6948 52.5795L16.3159 53.9584V38.0908L17.8753 39.813C18.297 40.2743 18.8934 40.5366 19.5183 40.5359C20.1432 40.5351 20.739 40.2715 21.1597 39.8094L22.7159 38.1681V53.9584ZM33.3825 61.8666H31.2492V54.4H33.3825V61.8666ZM60.0493 52.2666H24.8493V50.1333H60.0493V52.2666ZM33.3825 48H31.2492V44.8H33.3825V48Z" fill="#428DFF"/>
<path d="M18.4493 21.3333C18.4493 19.5661 17.0166 18.1333 15.2493 18.1333C13.4821 18.1333 12.0493 19.5661 12.0493 21.3333C12.0493 23.1007 13.4821 24.5333 15.2493 24.5333C17.0158 24.5313 18.4473 23.0998 18.4493 21.3333ZM14.1826 21.3333C14.1826 20.7442 14.6602 20.2667 15.2492 20.2667C15.8383 20.2667 16.3158 20.7443 16.3158 21.3333C16.3158 21.9224 15.8382 22.3999 15.2492 22.3999C14.6604 22.3992 14.1833 21.9221 14.1826 21.3333Z" fill="#428DFF"/>
<path d="M20.5825 29.8665C20.5825 31.6337 22.0153 33.0665 23.7825 33.0665C25.5499 33.0665 26.9825 31.6337 26.9825 29.8665C26.9825 28.0991 25.5498 26.6665 23.7825 26.6665C22.016 26.6685 20.5845 28.1 20.5825 29.8665ZM24.8493 29.8665C24.8493 30.4556 24.3716 30.9331 23.7826 30.9331C23.1935 30.9331 22.716 30.4555 22.716 29.8665C22.716 29.2774 23.1936 28.7999 23.7826 28.7999C24.3714 28.8006 24.8485 29.2777 24.8493 29.8665Z" fill="#428DFF"/>
<path d="M25.6032 19.5122C25.4032 19.3121 25.132 19.1997 24.8491 19.1997C24.5662 19.1997 24.295 19.3121 24.095 19.5122L13.4282 30.179C13.156 30.4478 13.0486 30.8419 13.1469 31.2117C13.2451 31.5814 13.534 31.8703 13.9037 31.9686C14.2735 32.0668 14.6676 31.9594 14.9365 31.6872L25.6031 21.0206C25.8032 20.8206 25.9156 20.5493 25.9156 20.2665C25.9156 19.9835 25.8032 19.7122 25.6032 19.5122Z" fill="#428DFF"/>
<path d="M45.116 20.2666H40.8493C40.2602 20.2666 39.7827 20.7442 39.7827 21.3332C39.7827 21.9224 40.2603 22.3999 40.8493 22.3999H45.116C45.7051 22.3999 46.1826 21.9222 46.1826 21.3332C46.1826 20.7442 45.7051 20.2666 45.116 20.2666Z" fill="#428DFF"/>
<path d="M45.116 25.5998C45.116 26.189 45.5935 26.6665 46.1826 26.6665H50.4492C51.0383 26.6665 51.5158 26.1888 51.5158 25.5998C51.5158 25.0107 51.0382 24.5332 50.4492 24.5332H46.1826C45.5936 24.5332 45.116 25.0107 45.116 25.5998Z" fill="#428DFF"/>
<path d="M55.7825 20.2666H49.3825C48.7934 20.2666 48.3159 20.7442 48.3159 21.3332C48.3159 21.9224 48.7934 22.3999 49.3825 22.3999H55.7825C56.3717 22.3999 56.8492 21.9222 56.8492 21.3332C56.8493 20.7442 56.3717 20.2666 55.7825 20.2666Z" fill="#428DFF"/>
<path d="M40.8493 30.9335H45.116C45.7051 30.9335 46.1826 30.4559 46.1826 29.8669C46.1826 29.2778 45.7051 28.8003 45.116 28.8003H40.8493C40.2602 28.8003 39.7827 29.2779 39.7827 29.8669C39.7826 30.4559 40.2602 30.9335 40.8493 30.9335Z" fill="#428DFF"/>
<path d="M55.7825 28.8003H49.3825C48.7934 28.8003 48.3159 29.2779 48.3159 29.8669C48.3159 30.456 48.7934 30.9335 49.3825 30.9335H55.7825C56.3717 30.9335 56.8492 30.4559 56.8492 29.8669C56.8493 29.2779 56.3717 28.8003 55.7825 28.8003Z" fill="#428DFF"/>
<path d="M40.8493 26.6665H41.916C42.5051 26.6665 42.9826 26.1888 42.9826 25.5998C42.9826 25.0107 42.5051 24.5332 41.916 24.5332H40.8493C40.2602 24.5332 39.7827 25.0108 39.7827 25.5998C39.7826 26.189 40.2602 26.6665 40.8493 26.6665Z" fill="#428DFF"/>
<path d="M55.7827 24.5332H54.716C54.1269 24.5332 53.6494 25.0108 53.6494 25.5998C53.6494 26.189 54.1269 26.6665 54.716 26.6665H55.7827C56.3718 26.6665 56.8493 26.1888 56.8493 25.5998C56.8494 25.0107 56.3718 24.5332 55.7827 24.5332Z" fill="#428DFF"/>
</g>
<defs>
<linearGradient id="paint0_linear" x1="6.22199" y1="-1.03167" x2="34.3563" y2="57.9139" gradientUnits="userSpaceOnUse">
<stop stop-color="#D4E1F4"/>
<stop offset="0.1717" stop-color="#D4E1F4"/>
<stop offset="0.2" stop-color="#D4E1F4"/>
<stop offset="0.2001" stop-color="#DAE4F4"/>
<stop offset="0.2007" stop-color="#EBEBF4"/>
<stop offset="0.2014" stop-color="#F6F1F4"/>
<stop offset="0.2023" stop-color="#FDF4F4"/>
<stop offset="0.205" stop-color="#FFF5F4"/>
<stop offset="0.2522" stop-color="#FFF5F4"/>
<stop offset="0.26" stop-color="#D4E1F4"/>
<stop offset="0.3974" stop-color="#D4E1F4"/>
<stop offset="0.42" stop-color="#D4E1F4"/>
<stop offset="0.4201" stop-color="#DAE4F4"/>
<stop offset="0.4207" stop-color="#EBEBF4"/>
<stop offset="0.4214" stop-color="#F6F1F4"/>
<stop offset="0.4223" stop-color="#FDF4F4"/>
<stop offset="0.425" stop-color="#FFF5F4"/>
<stop offset="0.4894" stop-color="#FFF5F4"/>
<stop offset="0.5" stop-color="#F9F2F4"/>
<stop offset="0.5001" stop-color="#E8EBF4"/>
<stop offset="0.5003" stop-color="#DDE5F4"/>
<stop offset="0.5005" stop-color="#D6E2F4"/>
<stop offset="0.501" stop-color="#D4E1F4"/>
<stop offset="0.7062" stop-color="#D4E1F4"/>
<stop offset="0.74" stop-color="#D4E1F4"/>
<stop offset="0.741" stop-color="#FFF5F4"/>
<stop offset="0.8346" stop-color="#FFF5F4"/>
<stop offset="0.85" stop-color="#FFF5F4"/>
<stop offset="0.851" stop-color="#D4E1F4"/>
</linearGradient>
<clipPath id="clip0">
<rect width="64" height="64" fill="white" transform="translate(0.315918)"/>
</clipPath>
</defs>
</svg>
