<svg width="65" height="64" viewBox="0 0 65 64" fill="none" xmlns="http://www.w3.org/2000/svg">
<path d="M40.8487 51.6909H23.7825V61.3654H40.8487V51.6909Z" fill="#E3E7F2"/>
<path d="M5.64935 10.6675H58.9817C61.338 10.6675 63.2482 12.5777 63.2482 14.934V50.1333C63.2482 52.4897 61.338 54.3999 58.9817 54.3999H5.64935C3.29303 54.3999 1.38281 52.4897 1.38281 50.1333V14.934C1.38281 12.5777 3.29303 10.6675 5.64935 10.6675Z" fill="#7FACFA"/>
<path d="M5.64935 10.6675H55.7818C58.1381 10.6675 60.0483 12.5777 60.0483 14.934V50.1333C60.0483 52.4897 58.1381 54.3999 55.7818 54.3999H5.64935C3.29303 54.3999 1.38281 52.4897 1.38281 50.1333V14.934C1.38281 12.5777 3.29303 10.6675 5.64935 10.6675Z" fill="#E3E7F2"/>
<path d="M16.3156 58.6665H48.315C48.9041 58.6665 49.3816 59.144 49.3816 59.7331V61.8664C49.3816 62.4556 48.904 62.933 48.315 62.933H16.3156C15.7265 62.933 15.249 62.4556 15.249 61.8664V59.7331C15.249 59.1441 15.7265 58.6665 16.3156 58.6665Z" fill="#E3E7F2"/>
<path d="M63.2482 14.9341V45.8669H1.38281V14.9341C1.38244 13.8024 1.83193 12.7171 2.63216 11.9168C3.4324 11.1166 4.51775 10.6672 5.64948 10.6675H58.9818C60.1135 10.6671 61.1989 11.1166 61.9991 11.9168C62.7991 12.7171 63.2486 13.8024 63.2482 14.9341Z" fill="#7FACFA"/>
<path d="M60.0483 14.9341V45.8669H1.38281V14.9341C1.38244 13.8024 1.83193 12.7171 2.63216 11.9168C3.4324 11.1166 4.51775 10.6672 5.64948 10.6675H55.7819C56.9136 10.6671 57.999 11.1166 58.7992 11.9168C59.5992 12.7171 60.0487 13.8024 60.0483 14.9341Z" fill="#E3E7F2"/>
<path d="M63.2482 44.267C63.2501 44.8082 63.1747 45.347 63.0242 45.867H1.38281V27.0087L25.0304 24.1821L32.5076 31.5206C33.2408 28.5665 35.955 26.539 38.9957 26.6736C42.0364 26.8082 44.5607 29.0679 45.03 32.0752C47.1608 30.674 49.8884 30.5545 52.1336 31.764C54.3788 32.9735 55.7796 35.3169 55.7817 37.8671C55.7835 38.1237 55.7692 38.3802 55.7391 38.6351C56.2731 38.4811 56.826 38.4021 57.3817 38.4005C58.9379 38.3996 60.4305 39.0173 61.531 40.1178C62.6314 41.2182 63.2491 42.7109 63.2482 44.267Z" fill="url(#paint0_linear)"/>
<path d="M43.2167 14.4329L33.5635 5.0037C33.6686 4.89858 33.779 4.79895 33.8941 4.70508C37.0087 1.94251 42.1286 1.27052 45.0299 1.11053C46.3738 1.0359 47.2378 1.07853 47.2378 1.07853C47.2378 1.07853 47.6539 10.0916 43.2167 14.4329Z" fill="#7FACFA"/>
<path d="M45.5845 1.06787C45.3499 4.07581 44.5179 8.87572 41.638 11.6917L34.4487 4.66243C37.5633 1.89985 42.6832 1.22787 45.5845 1.06787Z" fill="#E3E7F2"/>
<path d="M43.3126 14.3369L33.5634 23.8621L24.7103 32.5125L21.8516 29.718L15.0571 23.0834L23.9103 14.4329L33.5101 5.05709L33.6594 4.90771L43.3126 14.3369Z" fill="#7FACFA"/>
<path d="M40.8486 11.969L31.0994 21.4942L22.3956 29.9952L15.6011 23.3607L24.4543 14.7103L34.0541 5.33447L40.8486 11.969Z" fill="#E3E7F2"/>
<path d="M32.7574 19.9367C31.4118 21.2385 29.2761 21.2385 27.9305 19.9367C27.2917 19.3188 26.9309 18.4682 26.9309 17.5793C26.9309 16.6906 27.2917 15.8399 27.9305 15.222C29.2761 13.9201 31.4118 13.9201 32.7574 15.222C33.3963 15.8399 33.757 16.6905 33.757 17.5793C33.757 18.4681 33.3963 19.3188 32.7574 19.9367Z" fill="#E3E7F2"/>
<path d="M23.9104 14.4326L15.0572 23.0831L11.0359 27.0084H1.38281L12.6466 16.0112L23.9104 14.4326Z" fill="#A4C2F7"/>
<path d="M20.6891 36.438L14.2572 38.0059L14.1078 37.8672L9.57466 33.4407L9.42529 33.2913L9.51067 32.95L11.0359 27.0088L18.1717 33.9847L20.6891 36.438Z" fill="#7FACFA"/>
<path d="M33.5636 23.8618L31.953 34.8696L20.6892 45.8666V36.4376L24.7105 32.5123L33.5636 23.8618Z" fill="#A4C2F7"/>
<path d="M24.7104 32.5122L20.6891 36.4375L18.1717 33.9842L11.0359 27.0083L11.2493 26.7949L15.0572 23.083L22.3317 30.1869L24.7104 32.5122Z" fill="#7FACFA"/>
<path d="M18.5238 33.8988L18.1718 33.9842L12.0919 35.4668L11.9427 35.3281L9.51074 32.9496L11.036 27.0083L11.2493 26.7949L18.5238 33.8988Z" fill="#D4E1F4"/>
<path d="M22.3317 30.1869L18.5238 33.8988L11.2493 26.7949L15.0572 23.083L22.3317 30.1869Z" fill="#D4E1F4"/>
<path d="M14.1078 37.867C13.9507 38.2168 13.726 38.5322 13.4465 38.7949C12.1131 40.0963 6.2146 41.1523 6.2146 41.1523C6.2146 41.1523 7.29195 35.3818 8.62518 34.0804C8.8973 33.8078 9.21967 33.5904 9.57453 33.4404L14.1078 37.867Z" fill="#D4E1F4"/>
<path d="M40.8486 54.4004H37.6487V58.6669H40.8486V54.4004Z" fill="#7FACFA"/>
<path d="M49.382 59.7341V61.8674C49.3803 62.4558 48.9038 62.9323 48.3154 62.934H45.1155C45.7038 62.9323 46.1803 62.4558 46.1821 61.8674V59.7341C46.1803 59.1457 45.7038 58.6692 45.1155 58.6675H48.3154C48.9037 58.6691 49.3803 59.1457 49.382 59.7341Z" fill="#7FACFA"/>
<path d="M4.58275 50.1339C4.5825 51.2656 5.03186 52.351 5.8321 53.1513C6.63233 53.9515 7.71769 54.4009 8.84941 54.4006H5.64948C4.51787 54.4009 3.4324 53.9515 2.63216 53.1513C1.83193 52.351 1.38256 51.2657 1.38281 50.1339V14.9346C1.38244 13.8029 1.83193 12.7176 2.63216 11.9173C3.4324 11.1171 4.51775 10.6677 5.64948 10.668H8.84941C7.71769 10.6676 6.63233 11.1171 5.8321 11.9173C5.03186 12.7176 4.5825 13.8029 4.58275 14.9346V50.1339Z" fill="white"/>
<path d="M18.449 59.7336V61.8669C18.4507 62.4553 18.9272 62.9318 19.5156 62.9335H16.3156C15.7273 62.9318 15.2508 62.4553 15.249 61.8669V59.7336C15.2508 59.1452 15.7273 58.6687 16.3156 58.667H19.5156C18.9272 58.6686 18.4507 59.1452 18.449 59.7336Z" fill="white"/>
<path d="M26.9824 54.4004H23.7825V58.6669H26.9824V54.4004Z" fill="white"/>
<path d="M0.316162 45.8666V32.0002V27.0083H2.4495V32.0002V45.8666H0.316162Z" fill="white"/>
<path d="M0.97753 38.3155C1.03803 38.3463 1.10278 38.3677 1.16965 38.379C1.24002 38.391 1.31127 38.3982 1.38265 38.4004C1.66502 38.3965 1.93551 38.286 2.14001 38.0911C2.54262 37.6664 2.54262 37.0011 2.14001 36.5765C2.03813 36.4801 1.91876 36.4041 1.78839 36.3525C1.66002 36.2977 1.52214 36.2687 1.38265 36.2671C1.10028 36.2713 0.829908 36.3818 0.625287 36.5765C0.212795 36.9971 0.212795 37.6704 0.625287 38.0911L0.785159 38.2192C0.844783 38.2597 0.909406 38.2921 0.97753 38.3155Z" fill="#428DFF"/>
<path d="M58.9825 9.601H47.1726C47.9982 6.8208 48.3802 3.92786 48.3046 1.02879C48.2788 0.4778 47.8373 0.0373086 47.2864 0.012684C46.8926 -0.00344064 37.5375 -0.365933 32.8174 4.24435L27.333 9.601H5.65017C2.7061 9.6045 0.320394 11.9902 0.316895 14.9343V27.0085L0.31702 27.0088H0.316895V33.0673C0.316895 33.6564 0.79451 34.1339 1.3835 34.1339C1.97249 34.1339 2.4501 33.6564 2.4501 33.0673V28.0751H9.66296L8.43861 32.8588C8.23949 32.9958 8.05224 33.1492 7.87862 33.3173C6.37815 34.7834 5.35217 39.9379 5.16205 40.9568C5.1038 41.2685 5.18742 41.59 5.39005 41.834C5.59267 42.078 5.89341 42.2191 6.21053 42.2192C6.2734 42.2194 6.33615 42.2137 6.39803 42.2026C7.43763 42.0172 12.701 41.0183 14.1952 39.5589C14.3684 39.3885 14.5267 39.2038 14.6689 39.0067L19.6243 37.7967V44.8004H2.45023V41.6005C2.45023 41.0114 1.97261 40.5339 1.38362 40.5339C0.794635 40.5339 0.31702 41.0115 0.31702 41.6005V50.1337C0.320519 53.0778 2.70622 55.4635 5.65029 55.467H22.7166V57.6003H15.2501C14.661 57.6003 14.1835 58.0778 14.1835 58.6669V62.9335C14.1835 63.5226 14.6611 64.0001 15.2501 64.0001H49.3828C49.9719 64.0001 50.4494 63.5226 50.4494 62.9335V58.6669C50.4494 58.0778 49.9719 57.6003 49.3828 57.6003H41.9163V55.467H58.9826C61.9267 55.4635 64.3124 53.0778 64.3159 50.1337V14.9344C64.3123 11.9902 61.9264 9.6045 58.9825 9.601ZM58.9825 11.7343C60.749 11.7362 62.1806 13.1678 62.1824 14.9343V39.2757C60.895 38.0302 59.1739 37.3338 57.3825 37.3338C57.1972 37.3338 57.0104 37.3585 56.8242 37.3738C56.6772 34.7789 55.2719 32.4192 53.0604 31.0537C50.8488 29.6882 48.1097 29.489 45.7238 30.5201C44.9143 28.2808 43.0834 26.5629 40.7971 25.8976C38.5108 25.2322 36.0442 25.6992 34.1594 27.1544L34.5656 24.3768L43.9614 15.1994C44.9553 14.1959 45.761 13.0223 46.3404 11.7343H58.9825ZM14.5771 36.8327L10.6142 32.9625L11.6125 29.0616L18.5704 35.8576L14.5771 36.8327ZM33.5626 6.49843L41.6896 14.4363L24.7134 31.018L16.5861 23.0796L33.5626 6.49843ZM15.0595 24.5705L23.1868 32.5089L20.6909 34.9469L12.5635 27.0084L15.0595 24.5705ZM21.7576 36.8871L32.0508 26.833L31.3919 31.3383L31.3918 31.3386V31.3388L30.9507 34.3553L21.7576 43.3343V36.8871ZM44.683 10.228C44.6754 10.2446 44.6683 10.2604 44.6615 10.2774C44.2834 11.2133 43.7788 12.0932 43.1618 12.8922L35.1488 5.06559C38.5195 2.55376 43.9388 2.17939 46.1771 2.13964C46.1519 4.90209 45.6464 7.63903 44.683 10.228ZM5.65017 11.7343H25.1488L23.4142 13.4285L12.499 14.9514C12.2735 14.9826 12.0639 15.0854 11.9012 15.2446L2.45035 24.4757V14.9343C2.4521 13.1677 3.8837 11.7362 5.65017 11.7343ZM4.00232 25.9418L13.1411 17.0155L20.8419 15.941L10.6026 25.9418H4.00232ZM7.58813 39.7879C8.10274 37.5822 8.8241 35.376 9.36984 34.8426C9.38997 34.823 9.41247 34.8093 9.43309 34.7905L12.7267 38.0072C12.7187 38.0152 12.7133 38.0241 12.7052 38.0321C12.1547 38.5702 9.86621 39.2822 7.58813 39.7879ZM32.6991 35.6291C32.8664 35.4656 32.9753 35.2517 33.009 35.0203L33.4564 31.9611C33.4914 31.9031 33.5205 31.8418 33.5434 31.7781C34.122 29.4265 36.2174 27.7635 38.639 27.7343C41.0606 27.705 43.1957 29.3167 43.831 31.6536C42.9476 32.3681 42.2225 33.2584 41.7015 34.2681C41.5272 34.6079 41.5477 35.0149 41.7555 35.3352C41.9631 35.6556 42.3262 35.8406 42.7074 35.8204C43.0887 35.8001 43.43 35.5775 43.6025 35.2369C44.0693 34.3229 44.7607 33.5425 45.6119 32.9692C47.4147 31.7813 49.7241 31.6784 51.6254 32.7014C53.5267 33.7243 54.7135 35.708 54.7158 37.8671L54.7146 37.8896C53.5572 38.3697 52.5505 39.1525 51.8003 40.156C51.5713 40.4621 51.5236 40.8675 51.6756 41.2184C51.8275 41.5692 52.1558 41.8119 52.5357 41.8542C52.9157 41.8966 53.2894 41.7324 53.5149 41.4238C54.1402 40.5781 55.0241 39.9593 56.0326 39.6608C56.4714 39.5338 56.9258 39.4685 57.3825 39.467C58.7533 39.4503 60.0642 40.0275 60.9775 41.05C61.8907 42.0725 62.3167 43.4401 62.1458 44.8003H23.3096L32.6991 35.6291ZM48.316 61.8666H16.3166V59.7333H48.316V61.8666ZM39.7829 57.6001H24.8498V55.4667H39.7829V57.6001ZM58.9825 53.3335H5.65017C3.8837 53.3316 2.4521 51.9 2.45023 50.1336V46.9336H62.1824V50.1336C62.1804 51.9 60.749 53.3315 58.9825 53.3335Z" fill="#428DFF"/>
<path d="M27.1854 20.7001C28.9473 22.4015 31.7404 22.4015 33.5024 20.7001C34.347 19.8818 34.8237 18.7559 34.8237 17.5798C34.8237 16.4037 34.347 15.278 33.5024 14.4595C31.7405 12.7578 28.9475 12.7577 27.1854 14.459C26.3408 15.2775 25.864 16.4033 25.864 17.5796C25.864 18.7557 26.3408 19.8815 27.1854 20.7001ZM28.676 15.9856C29.6063 15.0869 31.0817 15.087 32.0118 15.9861C32.4454 16.403 32.6904 16.9786 32.6904 17.5801C32.6904 18.1816 32.4454 18.7572 32.0118 19.174C31.0813 20.0725 29.6064 20.0725 28.676 19.174C28.2423 18.757 27.9973 18.1814 27.9973 17.5798C27.9973 16.9782 28.2423 16.4026 28.676 15.9856Z" fill="#428DFF"/>
<defs>
<linearGradient id="paint0_linear" x1="8.43079" y1="19.9609" x2="13.901" y2="64.4834" gradientUnits="userSpaceOnUse">
<stop stop-color="#D4E1F4"/>
<stop offset="0.1717" stop-color="#D4E1F4"/>
<stop offset="0.2" stop-color="#D4E1F4"/>
<stop offset="0.2001" stop-color="#DAE4F4"/>
<stop offset="0.2007" stop-color="#EBEBF4"/>
<stop offset="0.2014" stop-color="#F6F1F4"/>
<stop offset="0.2023" stop-color="#FDF4F4"/>
<stop offset="0.205" stop-color="#FFF5F4"/>
<stop offset="0.2522" stop-color="#FFF5F4"/>
<stop offset="0.26" stop-color="#D4E1F4"/>
<stop offset="0.3974" stop-color="#D4E1F4"/>
<stop offset="0.42" stop-color="#D4E1F4"/>
<stop offset="0.4201" stop-color="#DAE4F4"/>
<stop offset="0.4207" stop-color="#EBEBF4"/>
<stop offset="0.4214" stop-color="#F6F1F4"/>
<stop offset="0.4223" stop-color="#FDF4F4"/>
<stop offset="0.425" stop-color="#FFF5F4"/>
<stop offset="0.4894" stop-color="#FFF5F4"/>
<stop offset="0.5" stop-color="#F9F2F4"/>
<stop offset="0.5001" stop-color="#E8EBF4"/>
<stop offset="0.5003" stop-color="#DDE5F4"/>
<stop offset="0.5005" stop-color="#D6E2F4"/>
<stop offset="0.501" stop-color="#D4E1F4"/>
<stop offset="0.7062" stop-color="#D4E1F4"/>
<stop offset="0.74" stop-color="#D4E1F4"/>
<stop offset="0.741" stop-color="#FFF5F4"/>
<stop offset="0.8346" stop-color="#FFF5F4"/>
<stop offset="0.85" stop-color="#FFF5F4"/>
<stop offset="0.851" stop-color="#D4E1F4"/>
</linearGradient>
</defs>
</svg>
