<svg width="65" height="64" viewBox="0 0 65 64" fill="none" xmlns="http://www.w3.org/2000/svg">
<g clip-path="url(#clip0)">
<path d="M63.249 32C63.249 49.084 49.3999 62.9331 32.3159 62.9331C31.7827 62.9331 31.249 62.9229 30.7266 62.8906H30.7051C14.2749 62.0269 1.396 48.4526 1.396 32C1.396 15.5474 14.2749 1.97314 30.7051 1.10938H30.7266C31.249 1.07715 31.7827 1.06689 32.3159 1.06689C49.3999 1.06689 63.249 14.916 63.249 32Z" fill="#A4C2F7"/>
<path d="M60.0493 32C60.0488 48.458 47.1621 62.0337 30.7266 62.8906H30.7051C14.2749 62.0269 1.396 48.4526 1.396 32C1.396 15.5474 14.2749 1.97314 30.7051 1.10938H30.7266C47.1621 1.96631 60.0488 15.542 60.0493 32Z" fill="#E3E7F2"/>
<path d="M34.5005 17.0591L32.3159 14.9331L30.1313 17.0591C27.2324 19.7534 22.896 20.1924 19.5161 18.1333V34.1855C19.5493 38.625 21.9556 42.7075 25.8232 44.8877L32.3159 48.9087L38.8086 44.8877C42.6763 42.7075 45.0825 38.625 45.1157 34.1855V18.1333C41.7358 20.1924 37.3994 19.7534 34.5005 17.0591Z" fill="#E3E7F2"/>
<path d="M39.7827 31.8423C39.7827 35.9658 36.4395 39.3086 32.3159 39.3086C28.1924 39.3086 24.8491 35.9658 24.8491 31.8423C24.8491 27.7183 28.1924 24.3755 32.3159 24.3755C36.4395 24.3755 39.7827 27.7183 39.7827 31.8423Z" fill="#E3E7F2"/>
<path d="M30.7051 62.8906H30.7266C31.249 62.9229 31.7827 62.9331 32.3159 62.9331C32.8491 62.9331 33.3994 62.9185 33.937 62.8906H33.9053C17.4751 62.0269 4.59619 48.4526 4.59619 32C4.59619 15.5474 17.4751 1.97314 33.9053 1.10938H33.936C33.3999 1.08105 32.8599 1.06689 32.3159 1.06689C31.7827 1.06689 31.249 1.07715 30.7266 1.10938H30.7051C14.2749 1.97314 1.396 15.5474 1.396 32C1.396 48.4526 14.2749 62.0269 30.7051 62.8906Z" fill="white"/>
<path d="M32.3159 49.9756C32.1177 49.9751 31.9233 49.9199 31.7549 49.8154L25.2622 45.7939C21.0742 43.4258 18.4751 38.9966 18.4492 34.1855V18.1333C18.4502 17.7524 18.6538 17.4014 18.9834 17.2114C19.3135 17.021 19.7197 17.0215 20.0493 17.2119C23.0156 19.0283 26.8276 18.6533 29.3838 16.2944L31.5693 14.1685C31.9834 13.7661 32.6421 13.7661 33.0562 14.1685L35.2407 16.2944C37.7969 18.6533 41.6089 19.0283 44.5752 17.2119C44.9053 17.0176 45.314 17.0151 45.6465 17.2056C45.9785 17.3965 46.1836 17.7505 46.1826 18.1333V34.1855C46.1567 38.9966 43.5576 43.4258 39.3696 45.7939L32.877 49.8135C32.7085 49.9185 32.5142 49.9746 32.3159 49.9756ZM20.5825 19.8174V34.1855C20.6221 38.2544 22.8354 41.9907 26.3843 43.981L32.3159 47.6543L38.2476 43.981C41.7964 41.9907 44.0098 38.2544 44.0493 34.1855V19.8174C40.521 21.1968 36.5142 20.4199 33.7568 17.8228L32.3159 16.4268L30.875 17.8271C28.1162 20.4229 24.1099 21.1978 20.5825 19.8174Z" fill="#428DFF"/>
<path d="M32.3159 40.3755C27.603 40.3755 23.7827 36.5552 23.7827 31.8423C23.7827 27.1294 27.603 23.3086 32.3159 23.3086C37.0288 23.3086 40.8491 27.1294 40.8491 31.8423C40.8438 36.5527 37.0264 40.3701 32.3159 40.3755ZM32.3159 25.4419C28.7812 25.4419 25.916 28.3076 25.916 31.8423C25.916 35.377 28.7812 38.2422 32.3159 38.2422C35.8506 38.2422 38.7158 35.377 38.7158 31.8423C38.7124 28.3091 35.8491 25.4458 32.3159 25.4419Z" fill="#428DFF"/>
<path d="M31.2489 35.0422C30.9662 35.0422 30.6952 34.9299 30.495 34.7297L29.4281 33.6633C29.0243 33.2448 29.0297 32.5793 29.4413 32.1676C29.8529 31.7565 30.518 31.7507 30.9364 32.155L31.2489 32.4675L33.6952 30.0216C34.1137 29.6173 34.7787 29.6232 35.1903 30.0343C35.602 30.446 35.6073 31.111 35.2035 31.53L32.0033 34.7297C31.8031 34.9299 31.5321 35.0422 31.2489 35.0422Z" fill="#428DFF"/>
<path d="M0.315918 32C0.332519 27.1997 1.42236 22.4639 3.50635 18.1396C4.15283 16.7905 4.88721 15.4849 5.70557 14.2324C6.13232 13.6172 6.59424 13.0293 7.03711 12.4268C7.47412 11.8198 7.9541 11.2451 8.47363 10.707C10.4565 8.46045 12.7563 6.51514 15.3003 4.93213C17.8315 3.32617 20.5806 2.09229 23.4624 1.26807C26.3452 0.458008 29.3218 0.03125 32.3159 0V2.1333C29.52 2.16406 26.7402 2.5625 24.0483 3.31836C21.3604 4.08496 18.7969 5.23486 16.4365 6.73193C14.0605 8.20996 11.9141 10.0278 10.0654 12.1279C9.57861 12.6294 9.12988 13.166 8.72314 13.7344C8.31055 14.2964 7.87549 14.8447 7.47852 15.4185C6.71631 16.5884 6.03125 17.8066 5.42725 19.0654C3.48291 23.1011 2.46533 27.5205 2.44922 32H0.315918Z" fill="white"/>
<path d="M1.86914 26.695C1.58643 26.6496 1.29736 26.7209 1.06836 26.8923C0.838867 27.0632 0.688477 27.32 0.651855 27.6042L0.486816 28.6931L0.422363 29.7961L0.315918 31.9997H2.44922L2.55615 29.9421L2.60938 28.9128L2.76611 27.8952C2.83691 27.3195 2.44141 26.7902 1.86914 26.695Z" fill="#428DFF"/>
<path d="M32.3158 2.1333V0C29.3216 0.03125 26.3451 0.458008 23.4623 1.26807C20.5814 2.09277 17.8338 3.32666 15.3036 4.93213C12.7591 6.51514 10.4593 8.46045 8.47691 10.707C7.95591 11.2451 7.47398 11.8198 7.03599 12.4268C6.59312 13.0293 6.12925 13.6172 5.70445 14.2324C4.88609 15.4849 4.15123 16.7905 3.50523 18.1396L3.02623 19.1348C2.90416 19.397 2.89635 19.6978 3.00474 19.9658C3.11265 20.2339 3.32701 20.4453 3.59703 20.5493C4.13316 20.7544 4.73716 20.5127 4.98375 19.9937L5.43052 19.0654C6.03404 17.8066 6.71959 16.5884 7.48179 15.4185C7.87828 14.8447 8.31382 14.2964 8.72642 13.7344C9.13169 13.1665 9.57945 12.6294 10.0653 12.1279C11.9144 10.0298 14.0609 8.21338 16.4364 6.7373C18.7967 5.24023 21.3602 4.09033 24.0482 3.32373C26.7396 2.56592 29.5194 2.16553 32.3158 2.1333Z" fill="#428DFF"/>
<path d="M1.54704 23.2877C1.4782 23.5694 1.51579 23.8673 1.65349 24.1227L1.77654 24.2892C1.8239 24.3434 1.8781 24.3912 1.93864 24.4313C1.98991 24.4747 2.04753 24.5108 2.10905 24.5377C2.17448 24.5665 2.24187 24.5904 2.31071 24.609C2.58513 24.673 2.87273 24.6349 3.12126 24.5025C3.23845 24.4308 3.34099 24.338 3.42351 24.2281C3.67351 23.8902 3.69939 23.4352 3.48845 23.0709C3.4196 22.9518 3.32976 22.8463 3.2238 22.7584C3.11931 22.6676 2.99773 22.5987 2.86638 22.5558C2.59294 22.4723 2.29753 22.4962 2.0407 22.6232C1.79802 22.774 1.62175 23.0113 1.54704 23.2877Z" fill="#428DFF"/>
<path d="M32.3159 64C14.6509 63.98 0.335937 49.665 0.315918 32C0.315918 31.4111 0.793457 30.9331 1.38281 30.9331C1.97168 30.9331 2.44922 31.4111 2.44922 32C2.44922 48.4951 15.8208 61.8667 32.3159 61.8667C48.811 61.8667 62.1826 48.4951 62.1826 32C62.1826 15.5049 48.811 2.1333 32.3159 2.1333C31.7271 2.1333 31.249 1.65576 31.249 1.06689C31.249 0.477539 31.7271 0 32.3159 0C49.9893 0 64.3159 14.3267 64.3159 32C64.3159 49.6733 49.9893 64 32.3159 64Z" fill="#428DFF"/>
<path d="M32.3159 64C20.5527 64 10.9824 49.645 10.9824 32C10.9824 14.355 20.5527 0 32.3159 0C44.0791 0 53.6494 14.355 53.6494 32C53.6494 49.645 44.0791 64 32.3159 64ZM32.3159 2.1333C21.7295 2.1333 13.1157 15.5317 13.1157 32C13.1157 48.4683 21.7295 61.8667 32.3159 61.8667C42.9023 61.8667 51.5161 48.4683 51.5161 32C51.5161 15.5317 42.9023 2.1333 32.3159 2.1333Z" fill="#428DFF"/>
<path d="M32.3159 16C31.7271 16 31.249 15.5225 31.249 14.9331V1.06689C31.249 0.477539 31.7271 0 32.3159 0C32.9048 0 33.3828 0.477539 33.3828 1.06689V14.9331C33.3828 15.5225 32.9048 16 32.3159 16Z" fill="#428DFF"/>
<path d="M32.3159 64C31.7271 64 31.249 63.5225 31.249 62.9331V48.9087C31.249 48.3198 31.7271 47.8423 32.3159 47.8423C32.9048 47.8423 33.3828 48.3198 33.3828 48.9087V62.9331C33.3828 63.5225 32.9048 64 32.3159 64Z" fill="#428DFF"/>
<path d="M53.6494 55.4668C53.5816 55.4668 53.5142 55.46 53.4478 55.4473C46.48 54.1206 39.4082 53.4131 32.3159 53.3335C25.2232 53.4131 18.1514 54.1206 11.1831 55.4473C10.8057 55.5268 10.4146 55.3965 10.1607 55.106C9.90675 54.8159 9.82911 54.4111 9.95802 54.0474C10.0869 53.6841 10.4019 53.418 10.7822 53.3525C17.8823 52.001 25.0884 51.2803 32.3159 51.2002C39.5435 51.2803 46.7495 52.001 53.8496 53.3525C54.3897 53.4565 54.7622 53.9536 54.7105 54.5005C54.6582 55.0478 54.1992 55.4663 53.6494 55.4668Z" fill="#428DFF"/>
<path d="M32.3159 12.7998C25.0884 12.7198 17.8823 11.9991 10.7822 10.6475C10.4019 10.5821 10.0869 10.3159 9.95802 9.95267C9.82911 9.5889 9.90675 9.18411 10.1607 8.89407C10.4146 8.60355 10.8057 8.47317 11.1831 8.55276C18.1514 9.87942 25.2232 10.5869 32.3159 10.6665C39.4087 10.5869 46.4805 9.87942 53.4487 8.55276C53.8262 8.47317 54.2173 8.60355 54.4712 8.89407C54.7251 9.18411 54.8027 9.5889 54.6738 9.95267C54.5449 10.3159 54.23 10.5821 53.8496 10.6475C46.7495 11.9991 39.5435 12.7198 32.3159 12.7998Z" fill="#428DFF"/>
<path d="M63.249 33.0669H45.1157C44.5269 33.0669 44.0493 32.5889 44.0493 32C44.0493 31.4111 44.5269 30.9331 45.1157 30.9331H63.249C63.8384 30.9331 64.3159 31.4111 64.3159 32C64.3159 32.5889 63.8384 33.0669 63.249 33.0669Z" fill="#428DFF"/>
<path d="M19.5161 33.0669H1.38281C0.793457 33.0669 0.315918 32.5889 0.315918 32C0.315918 31.4111 0.793457 30.9331 1.38281 30.9331H19.5161C20.105 30.9331 20.5825 31.4111 20.5825 32C20.5825 32.5889 20.105 33.0669 19.5161 33.0669Z" fill="#428DFF"/>
</g>
<defs>
<clipPath id="clip0">
<rect width="64" height="64" fill="white" transform="translate(0.315918)"/>
</clipPath>
</defs>
</svg>
