<svg width="206" height="48" viewBox="0 0 206 48" fill="none" xmlns="http://www.w3.org/2000/svg">
<g clip-path="url(#clip0)">
<path d="M0.581392 28.5758C-0.133576 25.1216 -0.133576 21.7123 0.581392 18.2581C0.715448 18.2581 0.849504 18.2581 0.983561 18.2581C10.0547 18.2581 19.1705 18.2581 28.2417 18.2581C28.5098 18.2581 28.6885 18.3478 28.8673 18.5272C30.4313 20.0524 31.9506 21.5777 33.5146 23.1029C33.8274 23.4169 33.8274 23.4618 33.5146 23.7758C31.9506 25.301 30.3866 26.8711 28.8226 28.3964C28.6885 28.531 28.5098 28.5758 28.3311 28.5758C19.2152 28.5758 10.0547 28.5758 0.938875 28.5758C0.849504 28.5758 0.715448 28.5758 0.581392 28.5758Z" fill="#202240"/>
<path d="M26.409 47.2374C24.0853 47.2374 21.8064 46.9234 19.5721 46.2505C18.7678 46.0262 18.3209 45.3533 18.5443 44.6356C18.7678 43.9178 19.4827 43.5589 20.2424 43.7832C22.6554 44.4561 25.1131 44.7701 27.6155 44.6356C33.4693 44.2767 38.4741 41.944 42.4957 37.6374C45.4003 34.4972 47.2324 30.7739 47.858 26.5122C48.7517 20.3215 47.1877 14.7589 43.166 9.95892C39.5465 5.60752 34.8992 3.09537 29.3135 2.33275C26.1856 1.88416 23.1469 2.15331 20.1083 3.05051C19.6615 3.18509 19.2593 3.18509 18.8571 2.91593C18.455 2.69163 18.2762 2.24303 18.3209 1.70472C18.4103 1.1664 18.6784 0.80752 19.2146 0.672941C20.1977 0.403782 21.2255 0.134623 22.2085 -0.0448162C27.8836 -0.986872 33.2905 -0.179396 38.2953 2.64677C44.6406 6.1907 48.7517 11.529 50.2263 18.6617C51.7903 26.3328 49.8688 33.1514 44.73 39.0281C41.0211 43.2898 36.2845 45.8468 30.7435 46.8337C29.3135 47.1029 27.8389 47.1477 26.409 47.3271C26.4537 47.3271 26.4537 47.2823 26.409 47.2374Z" fill="#202240"/>
<path d="M1.47461 31.7158C9.47331 31.7158 17.3826 31.7158 25.3813 31.7158C25.292 31.8504 25.2026 31.8953 25.1579 31.985C21.8065 35.2597 18.4551 38.5345 15.1484 41.8093C15.0143 41.9439 14.8356 41.9887 14.6568 41.9887C12.5566 41.9887 10.4117 41.9887 8.31149 41.9887C8.17743 41.9887 7.99869 41.9439 7.86463 41.8093C5.04945 39.0728 2.90454 35.7981 1.56398 32.0298C1.51929 31.9401 1.51929 31.8504 1.47461 31.7158Z" fill="#202240"/>
<path d="M25.3813 15.1176C17.3826 15.1176 9.42862 15.1176 1.47461 15.1176C1.51929 14.983 1.56398 14.8485 1.60867 14.7139C2.94923 10.9905 5.04945 7.76061 7.86463 5.02417C7.99869 4.88959 8.17743 4.84473 8.35617 4.84473C10.4564 4.84473 12.6013 4.84473 14.7015 4.84473C14.8356 4.84473 15.0143 4.88959 15.1484 5.02417C18.5445 8.34379 21.8959 11.6186 25.292 14.9382C25.2473 14.983 25.292 15.0279 25.3813 15.1176Z" fill="#202240"/>
<path d="M78.9145 30.1008V31.7158H66.5813V14.2205H78.557V15.8354H68.4581V22.0709H77.4845V23.641H68.4581V30.1457H78.9145V30.1008Z" fill="#4C7FEA"/>
<path d="M98.9335 31.7157L93.3031 23.9998L87.7174 31.7157H85.6172L92.2306 22.6989L86.0194 14.1755H88.1196L93.3925 21.3531L98.6207 14.2204H100.632L94.4649 22.654L101.123 31.7157H98.9335Z" fill="#4C7FEA"/>
<path d="M120.651 31.7158L116.629 26.1084C116.182 26.1532 115.735 26.1981 115.244 26.1981H110.552V31.7607H108.72V14.2654H115.244C119.668 14.2654 122.349 16.5084 122.349 20.2766C122.349 23.013 120.919 24.942 118.372 25.7944L122.617 31.8056H120.651V31.7158ZM120.517 20.2317C120.517 17.4504 118.685 15.8355 115.199 15.8355H110.552V24.628H115.199C118.685 24.5831 120.517 22.9682 120.517 20.2317Z" fill="#4C7FEA"/>
<path d="M142.636 27.0504H132.939L130.839 31.7158H128.917L136.871 14.2205H138.704L146.658 31.7158H144.736L142.636 27.0504ZM141.966 25.5251L137.765 16.1046L133.565 25.5251H141.966Z" fill="#4C7FEA"/>
<path d="M157.069 15.8354H150.948V14.2205H165.023V15.8354H158.902V31.7606H157.069V15.8354Z" fill="#4C7FEA"/>
<path d="M185.311 30.1008V31.7158H172.977V14.2205H184.953V15.8354H174.854V22.0709H183.881V23.641H174.854V30.1457H185.311V30.1008Z" fill="#4C7FEA"/>
<path d="M192.952 29.6074L193.667 28.1719C194.918 29.3831 197.108 30.2803 199.431 30.2803C202.693 30.2803 204.123 28.8896 204.123 27.1849C204.123 22.3849 193.399 25.3457 193.399 18.841C193.399 16.284 195.41 14.041 199.833 14.041C201.8 14.041 203.855 14.6242 205.24 15.6111L204.615 17.0915C203.14 16.1046 201.397 15.656 199.833 15.656C196.661 15.656 195.231 17.0915 195.231 18.841C195.231 23.641 205.955 20.7251 205.955 27.1401C205.955 29.6971 203.9 31.8952 199.476 31.8952C196.795 31.8504 194.248 30.9532 192.952 29.6074Z" fill="#4C7FEA"/>
</g>
<defs>
<clipPath id="clip0">
<rect width="206" height="48" fill="white"/>
</clipPath>
</defs>
</svg>
