<svg width="1152" height="1433" viewBox="0 0 1152 1433" fill="none" xmlns="http://www.w3.org/2000/svg">
<path d="M1114.84 -173.004L1114.85 -173.002L1315.94 -86.4941C1326.91 -81.7711 1335.53 -72.8306 1339.85 -61.6858L1420.43 146.411L1420.43 146.416L1503.17 354.114C1507.5 364.967 1507.38 377.085 1502.85 387.853L1416.08 593.903L1416.08 593.907L1331.47 800.398C1326.93 811.457 1318.15 820.229 1307.08 824.737L1104.35 907.32L1104.34 907.322L902.852 991.758C891.572 996.485 878.845 996.361 867.659 991.416L667.847 903.079L667.843 903.077L466.757 816.569C455.778 811.846 447.161 802.905 442.845 791.76L362.261 583.663L362.26 583.659L279.517 375.961C275.193 365.108 275.311 352.989 279.845 342.222L366.61 136.172L366.611 136.167L451.225 -70.3238C455.757 -81.3827 464.546 -90.1539 475.614 -94.6626L678.344 -177.245L678.349 -177.247L879.84 -261.683C891.12 -266.41 903.847 -266.286 915.033 -261.341L1114.84 -173.004Z" stroke="white" stroke-opacity="0.1"/>
<path d="M1091.46 -117.698L1091.46 -117.696L1270.27 -40.7717C1281.25 -36.0487 1289.87 -27.1082 1294.18 -15.9633L1365.85 169.113L1365.85 169.118L1439.46 353.886C1443.79 364.74 1443.67 376.858 1439.13 387.625L1361.95 570.928L1361.95 570.933L1286.69 754.581C1282.16 765.64 1273.37 774.411 1262.3 778.92L1082.03 852.353L1082.03 852.355L902.909 927.416C891.63 932.143 878.902 932.019 867.717 927.074L690.091 848.545L690.086 848.543L511.278 771.619C500.3 766.896 491.683 757.956 487.367 746.811L415.698 561.734L415.696 561.73L342.088 376.961C337.764 366.108 337.882 353.99 342.416 343.222L419.602 159.92L419.604 159.915L494.857 -23.7334C499.389 -34.7922 508.178 -43.5635 519.246 -48.0722L699.516 -121.506L699.52 -121.507L878.64 -196.568C889.919 -201.295 902.647 -201.171 913.832 -196.226L1091.46 -117.698Z" stroke="white" stroke-opacity="0.1"/>
<path d="M1069.15 -63.0128L1069.16 -63.0108L1225.63 4.30248C1236.6 9.02548 1245.22 17.966 1249.54 29.1108L1312.27 191.104L1312.27 191.109L1376.72 352.885C1381.04 363.738 1380.92 375.857 1376.39 386.624L1308.81 547.117L1308.81 547.121L1242.94 707.865C1238.41 718.923 1229.62 727.695 1218.55 732.203L1060.8 796.462L1060.8 796.464L904.112 862.124C892.832 866.851 880.105 866.727 868.919 861.782L713.539 793.089L713.535 793.087L557.067 725.773C546.088 721.05 537.471 712.11 533.155 700.965L470.425 538.972L470.423 538.967L405.974 377.191C401.651 366.337 401.768 354.219 406.302 343.452L473.884 182.959L473.885 182.954L539.753 22.2112C544.285 11.1523 553.074 2.38104 564.142 -2.12763L721.89 -66.3865L721.894 -66.3885L878.58 -132.049C889.86 -136.775 902.587 -136.652 913.773 -131.707L1069.15 -63.0128Z" stroke="white" stroke-opacity="0.1"/>
<path d="M1046.23 -7.8304L1046.23 -7.82843L1180.32 49.8548C1191.3 54.5777 1199.91 63.5182 1204.23 74.6631L1258 213.526L1258 213.53L1313.27 352.268C1317.6 363.121 1317.48 375.24 1312.95 386.007L1254.99 523.644L1254.99 523.648L1198.52 661.439C1193.99 672.498 1185.2 681.269 1174.13 685.778L1038.96 740.844L1038.95 740.846L904.744 797.086C893.465 801.813 880.737 801.689 869.552 796.744L736.463 737.905L736.459 737.903L602.375 680.22C591.397 675.497 582.78 666.557 578.464 655.412L524.691 516.549L524.689 516.544L469.419 377.807C465.095 366.954 465.213 354.835 469.747 344.068L527.703 206.431L527.705 206.427L584.168 68.6356C588.699 57.5768 597.489 48.8055 608.557 44.2968L743.736 -10.7689L743.741 -10.7708L877.948 -67.011C889.227 -71.7377 901.955 -71.614 913.14 -66.6689L1046.23 -7.8304Z" stroke="white" stroke-opacity="0.1"/>
<path d="M1023.25 47.4779L1023.26 47.4799L1134.9 95.5111C1145.88 100.234 1154.5 109.175 1158.82 120.319L1203.61 235.999L1203.61 236.004L1249.68 351.65C1254.01 362.503 1253.89 374.622 1249.36 385.389L1201.05 500.117L1201.04 500.122L1154.01 614.909C1149.48 625.968 1140.69 634.739 1129.62 639.248L1017.06 685.1L1017.05 685.102L905.377 731.9C894.098 736.627 881.37 736.503 870.185 731.558L759.439 682.597L759.434 682.595L647.787 634.564C636.808 629.841 628.191 620.901 623.875 609.756L579.079 494.076L579.077 494.071L533.006 378.425C528.683 367.572 528.8 355.454 533.334 344.686L581.645 229.958L581.647 229.953L628.683 115.166C633.215 104.107 642.004 95.336 653.072 90.8273L765.632 44.9756L765.637 44.9737L877.314 -1.82522C888.593 -6.55191 901.321 -6.42819 912.506 -1.48312L1023.25 47.4779Z" stroke="white" stroke-opacity="0.1"/>
<path d="M876.482 63.4838C887.888 58.704 900.758 58.8291 912.07 63.8297L1000.27 102.825L1089.28 141.117C1100.39 145.893 1109.1 154.934 1113.46 166.204L1149.2 258.493L1185.99 350.841C1190.36 361.816 1190.24 374.071 1185.66 384.959L1147.08 476.574L1109.56 568.151C1104.97 579.334 1096.09 588.204 1084.89 592.763L995.155 629.318L906.21 666.591C894.804 671.371 881.934 671.245 870.622 666.245L782.419 627.25L693.409 588.957C682.307 584.181 673.593 575.14 669.228 563.87L633.49 471.581L596.701 379.234C592.329 368.258 592.448 356.004 597.033 345.116L635.61 253.501L673.136 161.924C677.718 150.741 686.606 141.871 697.799 137.312L787.537 100.757L876.482 63.4838Z" fill="url(#paint0_linear)"/>
<path d="M875.86 127.414C887.266 122.634 900.136 122.759 911.448 127.76L977.739 157.068L1044.75 185.894C1055.85 190.67 1064.56 199.711 1068.93 210.981L1095.86 280.534L1123.63 350.235C1128 361.21 1127.88 373.465 1123.3 384.353L1094.18 453.501L1065.9 522.517C1061.32 533.7 1052.43 542.57 1041.23 547.129L973.68 574.648L906.831 602.661C895.425 607.441 882.554 607.316 871.243 602.315L804.952 573.007L737.945 544.181C726.843 539.405 718.129 530.364 713.765 519.094L686.831 449.541L659.064 379.84C654.692 368.865 654.811 356.61 659.396 345.722L688.513 276.574L716.793 207.558C721.376 196.375 730.264 187.505 741.457 182.946L809.011 155.428L875.86 127.414Z" fill="url(#paint1_linear)" fill-opacity="0.6"/>
<path d="M875.222 193.017C886.629 188.237 899.499 188.362 910.81 193.363L954.617 212.73L999.043 231.843C1010.15 236.619 1018.86 245.66 1023.22 256.93L1041.12 303.151L1059.63 349.613C1064 360.588 1063.88 372.842 1059.3 383.73L1039.89 429.824L1021.1 475.688C1016.51 486.871 1007.63 495.741 996.434 500.3L951.644 518.546L907.469 537.057C896.063 541.837 883.193 541.712 871.881 536.711L828.075 517.345L783.648 498.232C772.546 493.456 763.832 484.415 759.468 473.145L741.569 426.924L723.06 380.462C718.688 369.487 718.807 357.232 723.392 346.344L742.801 300.251L761.595 254.386C766.177 243.203 775.065 234.333 786.258 229.774L831.048 211.529L875.222 193.017Z" fill="url(#paint2_linear)"/>
<defs>
<linearGradient id="paint0_linear" x1="894.35" y1="55.9959" x2="888.342" y2="674.079" gradientUnits="userSpaceOnUse">
<stop stop-color="#1953D0"/>
<stop offset="1" stop-color="#0E35A5" stop-opacity="0.3"/>
</linearGradient>
<linearGradient id="paint1_linear" x1="893.728" y1="119.926" x2="888.963" y2="610.149" gradientUnits="userSpaceOnUse">
<stop stop-color="#1953D1"/>
<stop offset="1" stop-color="#0E35A5"/>
</linearGradient>
<linearGradient id="paint2_linear" x1="893.091" y1="185.529" x2="889.601" y2="544.545" gradientUnits="userSpaceOnUse">
<stop stop-color="#1953D1"/>
<stop offset="1" stop-color="#0D33A3"/>
</linearGradient>
</defs>
</svg>
