<svg width="1152" height="2135" viewBox="0 0 1152 2135" fill="none" xmlns="http://www.w3.org/2000/svg">
<path d="M799.845 528.996L799.849 528.997L1000.94 615.506C1011.91 620.229 1020.53 629.169 1024.85 640.314L1105.43 848.411L1105.43 848.415L1188.18 1056.11C1192.5 1066.97 1192.38 1079.09 1187.85 1089.85L1101.08 1295.9L1101.08 1295.91L1016.47 1502.4C1011.94 1513.46 1003.15 1522.23 992.077 1526.74L789.348 1609.32L789.343 1609.32L587.852 1693.76C576.572 1698.48 563.845 1698.36 552.659 1693.42L352.848 1605.08L352.843 1605.08L151.757 1518.57C140.778 1513.85 132.161 1504.91 127.845 1493.76L47.2616 1285.66L47.2598 1285.66L-35.4829 1077.96C-39.8067 1067.11 -39.6889 1054.99 -35.155 1044.22L51.6098 838.172L51.6116 838.167L136.225 631.676C140.757 620.617 149.546 611.846 160.615 607.337L363.345 524.754L363.349 524.752L564.84 440.316C576.12 435.59 588.847 435.713 600.033 440.658L799.845 528.996Z" stroke="white" stroke-opacity="0.1"/>
<path d="M776.458 584.302L776.463 584.304L955.271 661.228C966.249 665.951 974.866 674.891 979.182 686.036L1050.85 871.113L1050.85 871.117L1124.46 1055.89C1128.79 1066.74 1128.67 1078.86 1124.13 1089.62L1046.95 1272.93L1046.95 1272.93L971.692 1456.58C967.16 1467.64 958.371 1476.41 947.303 1480.92L767.033 1554.35L767.029 1554.35L587.909 1629.42C576.63 1634.14 563.902 1634.02 552.717 1629.07L375.091 1550.54L375.086 1550.54L196.278 1473.62C185.3 1468.9 176.683 1459.96 172.367 1448.81L100.698 1263.73L100.696 1263.73L27.0878 1078.96C22.7641 1068.11 22.8819 1055.99 27.4158 1045.22L104.602 861.919L104.604 861.915L179.857 678.266C184.389 667.207 193.178 658.436 204.246 653.927L384.516 580.494L384.52 580.492L563.64 505.431C574.919 500.704 587.647 500.828 598.832 505.773L776.458 584.302Z" stroke="white" stroke-opacity="0.1"/>
<path d="M754.153 638.987L754.157 638.989L910.625 706.302C921.604 711.025 930.221 719.965 934.537 731.11L997.267 893.104L997.269 893.108L1061.72 1054.88C1066.04 1065.74 1065.92 1077.86 1061.39 1088.62L993.808 1249.12L993.807 1249.12L927.939 1409.86C923.407 1420.92 914.618 1429.69 903.55 1434.2L745.802 1498.46L745.798 1498.46L589.112 1564.12C577.832 1568.85 565.105 1568.73 553.919 1563.78L398.539 1495.09L398.535 1495.09L242.067 1427.77C231.088 1423.05 222.471 1414.11 218.155 1402.96L155.425 1240.97L155.423 1240.97L90.9744 1079.19C86.6506 1068.34 86.7684 1056.22 91.3023 1045.45L158.884 884.958L158.885 884.954L224.753 724.211C229.285 713.152 238.074 704.381 249.142 699.872L406.89 635.613L406.894 635.611L563.58 569.951C574.86 565.224 587.587 565.348 598.773 570.293L754.153 638.987Z" stroke="white" stroke-opacity="0.1"/>
<path d="M731.229 694.169L731.233 694.171L865.317 751.854C876.295 756.577 884.912 765.518 889.228 776.663L943.001 915.525L943.003 915.53L998.273 1054.27C1002.6 1065.12 1002.48 1077.24 997.945 1088.01L939.989 1225.64L939.987 1225.65L883.524 1363.44C878.993 1374.5 870.203 1383.27 859.135 1387.78L723.956 1442.84L723.951 1442.85L589.744 1499.09C578.465 1503.81 565.737 1503.69 554.552 1498.74L421.463 1439.9L421.459 1439.9L287.375 1382.22C276.397 1377.5 267.78 1368.56 263.464 1357.41L209.691 1218.55L209.689 1218.54L154.419 1079.81C150.095 1068.95 150.213 1056.83 154.747 1046.07L212.703 908.431L212.705 908.426L269.168 770.635C273.699 759.576 282.489 750.805 293.557 746.296L428.736 691.231L428.741 691.229L562.948 634.988C574.227 630.262 586.955 630.385 598.14 635.331L731.229 694.169Z" stroke="white" stroke-opacity="0.1"/>
<path d="M708.253 749.478L708.257 749.48L819.904 797.511C830.883 802.234 839.5 811.174 843.816 822.319L888.612 937.999L888.614 938.004L934.685 1053.65C939.009 1064.5 938.891 1076.62 934.357 1087.39L886.046 1202.12L886.044 1202.12L839.008 1316.91C834.477 1327.97 825.687 1336.74 814.619 1341.25L702.059 1387.1L702.054 1387.1L590.377 1433.9C579.098 1438.63 566.37 1438.5 555.185 1433.56L444.439 1384.6L444.434 1384.6L332.787 1336.56C321.808 1331.84 313.191 1322.9 308.875 1311.76L264.079 1196.08L264.077 1196.07L218.006 1080.43C213.683 1069.57 213.8 1057.45 218.334 1046.69L266.645 931.958L266.647 931.953L313.683 817.166C318.215 806.107 327.004 797.336 338.072 792.827L450.632 746.975L450.637 746.973L562.314 700.175C573.593 695.448 586.321 695.572 597.506 700.517L708.253 749.478Z" stroke="white" stroke-opacity="0.1"/>
<path d="M561.482 765.483C572.888 760.703 585.758 760.829 597.07 765.829L685.273 804.824L774.283 843.117C785.385 847.893 794.099 856.934 798.463 868.204L834.201 960.493L870.991 1052.84C875.363 1063.82 875.244 1076.07 870.659 1086.96L832.082 1178.57L794.556 1270.15C789.974 1281.33 781.086 1290.2 769.893 1294.76L680.155 1331.32L591.21 1368.59C579.804 1373.37 566.934 1373.24 555.622 1368.24L467.419 1329.25L378.409 1290.96C367.307 1286.18 358.593 1277.14 354.228 1265.87L318.49 1173.58L281.701 1081.23C277.329 1070.26 277.448 1058 282.033 1047.12L320.61 955.5L358.136 863.923C362.718 852.74 371.606 843.87 382.799 839.311L472.537 802.756L561.482 765.483Z" fill="url(#paint0_linear)"/>
<path d="M560.86 829.414C572.266 824.634 585.136 824.759 596.448 829.76L662.739 859.067L729.746 887.894C740.848 892.67 749.562 901.711 753.926 912.981L780.86 982.533L808.627 1052.23C812.999 1063.21 812.88 1075.46 808.295 1086.35L779.178 1155.5L750.898 1224.52C746.315 1235.7 737.427 1244.57 726.234 1249.13L658.68 1276.65L591.831 1304.66C580.425 1309.44 567.554 1309.32 556.243 1304.31L489.952 1275.01L422.945 1246.18C411.843 1241.4 403.129 1232.36 398.765 1221.09L371.831 1151.54L344.064 1081.84C339.692 1070.86 339.811 1058.61 344.396 1047.72L373.513 978.574L401.793 909.558C406.376 898.375 415.264 889.505 426.457 884.946L494.011 857.427L560.86 829.414Z" fill="url(#paint1_linear)" fill-opacity="0.6"/>
<path d="M560.222 895.017C571.629 890.237 584.499 890.362 595.81 895.363L639.617 914.729L684.043 933.842C695.145 938.618 703.859 947.659 708.224 958.929L726.122 1005.15L744.632 1051.61C749.004 1062.59 748.885 1074.84 744.3 1085.73L724.891 1131.82L706.097 1177.69C701.515 1188.87 692.626 1197.74 681.434 1202.3L636.644 1220.55L592.469 1239.06C581.063 1243.84 568.193 1243.71 556.881 1238.71L513.075 1219.34L468.648 1200.23C457.546 1195.46 448.832 1186.41 444.468 1175.14L426.569 1128.92L408.06 1082.46C403.688 1071.49 403.807 1059.23 408.392 1048.34L427.801 1002.25L446.595 956.386C451.177 945.203 460.065 936.333 471.258 931.774L516.048 913.528L560.222 895.017Z" fill="url(#paint2_linear)"/>
<defs>
<linearGradient id="paint0_linear" x1="579.35" y1="757.995" x2="573.342" y2="1376.08" gradientUnits="userSpaceOnUse">
<stop stop-color="#1953D0"/>
<stop offset="1" stop-color="#0E35A5" stop-opacity="0.3"/>
</linearGradient>
<linearGradient id="paint1_linear" x1="578.728" y1="821.926" x2="573.963" y2="1312.15" gradientUnits="userSpaceOnUse">
<stop stop-color="#1953D1"/>
<stop offset="1" stop-color="#0E35A5"/>
</linearGradient>
<linearGradient id="paint2_linear" x1="578.091" y1="887.529" x2="574.601" y2="1246.54" gradientUnits="userSpaceOnUse">
<stop stop-color="#1953D1"/>
<stop offset="1" stop-color="#0D33A3"/>
</linearGradient>
</defs>
</svg>
